<svg id="Layer_1" data-name="Layer 1" xmlns="http://www.w3.org/2000/svg" xmlns:xlink="http://www.w3.org/1999/xlink" viewBox="0 0 600 371"><defs><style>.cls-1,.cls-11,.cls-13,.cls-14,.cls-15,.cls-3,.cls-4,.cls-6,.cls-7,.cls-8,.cls-9{fill:none;}.cls-2{fill:#fff;}.cls-3{stroke:#ccc;}.cls-11,.cls-13,.cls-14,.cls-15,.cls-3,.cls-4,.cls-6,.cls-7,.cls-8,.cls-9{stroke-miterlimit:10;}.cls-4{stroke:#333;}.cls-5{clip-path:url(#clip-path);}.cls-11,.cls-6{stroke:#4285f4;}.cls-6,.cls-7,.cls-8,.cls-9{stroke-width:2px;}.cls-13,.cls-7{stroke:#ea4335;}.cls-14,.cls-8{stroke:#fbbc04;}.cls-15,.cls-9{stroke:#34a853;}.cls-10{fill-opacity:0;}.cls-11,.cls-13,.cls-14,.cls-15{stroke-width:4px;}.cls-12{fill:#1a1a1a;}.cls-16{fill:#757575;}.cls-17{font-size:12px;font-family:MyriadPro-Regular, Myriad Pro;}</style><clipPath id="clip-path"><rect class="cls-1" x="45.55" y="88.28" width="535.9" height="212.17"/></clipPath></defs><title>USA and USSR - atmospheric and underground2</title><path class="cls-2" d="M0,0H600V371H0Z"/><path class="cls-3" d="M82.5,88.5v212"/><path class="cls-3" d="M157.5,88.5v212"/><path class="cls-3" d="M231.5,88.5v212"/><path class="cls-3" d="M306.5,88.5v212"/><path class="cls-3" d="M380.5,88.5v212"/><path class="cls-3" d="M454.5,88.5v212"/><path class="cls-3" d="M529.5,88.5v212"/><path class="cls-4" d="M45.5,300.5h536"/><path class="cls-3" d="M45.5,247.5h536"/><path class="cls-3" d="M45.5,194.5h536"/><path class="cls-3" d="M45.5,141.5h536"/><path class="cls-3" d="M45.5,88.5h536"/><g class="cls-5"><path class="cls-6" d="M45.55,297.8,53,295.15l7.45,5.3,7.44-8,7.44,8h7.45l7.44-39.78,7.44,13.26,7.44-2.65,7.45,13.26L120,255.36l7.44-2.65,7.45-23.87L142.31,136l7.44,164.43h14.89L172.08,197l7.44,92.82L187,300.45H581.45"/></g><g class="cls-5"><path class="cls-7" d="M45.55,300.45H82.77l7.44-2.65,7.44,2.65h14.89L120,297.8l7.44,2.65,7.45-13.26,7.44-26.52,7.44,39.78h7.45l7.44-26.52,7.44-124.65,7.44,37.13,7.45-5.3,7.44,18.56,7.44-26.52,7.45,15.91,7.44-37.13,7.44,26.52L231.63,197l7.44,39.78,7.44-8,7.45,8,7.44,5.3h7.44l7.44,5.31h7.45l7.44,2.65,7.44,10.61,7.45,2.65,7.44-5.3,7.44-5.31h14.89l7.44,2.65,7.45,8h7.44l7.44-2.65L373,271.28l7.45,8,7.44,2.66,7.44,2.65,7.45,15.91H581.45"/></g><g class="cls-5"><path class="cls-8" d="M45.55,300.45H67.88l7.44-2.65,7.45,2.65,7.44-5.3,7.44,5.3,7.44-13.26,7.45-13.26L120,284.54l7.44-8L134.87,258l7.44-47.74,7.44,90.17h7.45l7.44-153.82,7.44-53,7.44,206.86H581.45"/></g><g class="cls-5"><path class="cls-9" d="M45.55,300.45H157.2l7.44-2.65h7.44l7.44,2.65L187,276.58l7.44-13.26,7.44-10.61,7.45,2.65h7.44l7.44-5.3,7.45,8,7.44-18.57,7.44-2.65L254,255.36l7.44-10.6,7.44,5.3,7.44-5.3,7.45-8,7.44-18.56h7.44l7.45,18.56,7.44,8,7.44,5.3,7.45-15.91,7.44-5.31,7.44,45.09,7.45,26.52,7.44-61L365.6,258,373,281.89l7.45,15.91,7.44,2.65H581.45"/></g><g class="cls-5"><path class="cls-10" d="M48.55,297.8a3,3,0,1,1-3-3A3,3,0,0,1,48.55,297.8Z"/></g><g class="cls-5"><path class="cls-10" d="M56,295.15a3,3,0,1,1-3-3A3,3,0,0,1,56,295.15Z"/></g><g class="cls-5"><path class="cls-10" d="M63.44,300.45a3,3,0,1,1-3-3A3,3,0,0,1,63.44,300.45Z"/></g><g class="cls-5"><path class="cls-10" d="M70.88,292.49a3,3,0,1,1-3-3A3,3,0,0,1,70.88,292.49Z"/></g><g class="cls-5"><path class="cls-10" d="M78.32,300.45a3,3,0,1,1-3-3A3,3,0,0,1,78.32,300.45Z"/></g><g class="cls-5"><path class="cls-10" d="M85.77,300.45a3,3,0,1,1-3-3A3,3,0,0,1,85.77,300.45Z"/></g><g class="cls-5"><path class="cls-10" d="M93.21,260.67a3,3,0,1,1-3-3A3,3,0,0,1,93.21,260.67Z"/></g><g class="cls-5"><path class="cls-10" d="M100.65,273.93a3,3,0,1,1-3-3A3,3,0,0,1,100.65,273.93Z"/></g><g class="cls-5"><path class="cls-10" d="M108.09,271.28a3,3,0,1,1-3-3A3,3,0,0,1,108.09,271.28Z"/></g><g class="cls-5"><path class="cls-10" d="M115.54,284.54a3,3,0,1,1-3-3A3,3,0,0,1,115.54,284.54Z"/></g><g class="cls-5"><path class="cls-10" d="M123,255.36a3,3,0,1,1-3-3A3,3,0,0,1,123,255.36Z"/></g><g class="cls-5"><path class="cls-10" d="M130.42,252.71a3,3,0,1,1-3-3A3,3,0,0,1,130.42,252.71Z"/></g><g class="cls-5"><path class="cls-10" d="M137.87,228.84a3,3,0,1,1-3-3A3,3,0,0,1,137.87,228.84Z"/></g><g class="cls-5"><path class="cls-10" d="M145.31,136a3,3,0,1,1-3-3A3,3,0,0,1,145.31,136Z"/></g><g class="cls-5"><path class="cls-10" d="M152.75,300.45a3,3,0,1,1-3-3A3,3,0,0,1,152.75,300.45Z"/></g><g class="cls-5"><path class="cls-10" d="M160.2,300.45a3,3,0,1,1-3-3A3,3,0,0,1,160.2,300.45Z"/></g><g class="cls-5"><path class="cls-10" d="M167.64,300.45a3,3,0,1,1-3-3A3,3,0,0,1,167.64,300.45Z"/></g><g class="cls-5"><path class="cls-10" d="M175.08,197a3,3,0,1,1-3-3A3,3,0,0,1,175.08,197Z"/></g><g class="cls-5"><path class="cls-10" d="M182.52,289.84a3,3,0,1,1-3-3A3,3,0,0,1,182.52,289.84Z"/></g><g class="cls-5"><path class="cls-10" d="M190,300.45a3,3,0,1,1-3-3A3,3,0,0,1,190,300.45Z"/></g><g class="cls-5"><path class="cls-10" d="M197.41,300.45a3,3,0,1,1-3-3A3,3,0,0,1,197.41,300.45Z"/></g><g class="cls-5"><path class="cls-10" d="M204.85,300.45a3,3,0,1,1-3-3A3,3,0,0,1,204.85,300.45Z"/></g><g class="cls-5"><path class="cls-10" d="M212.3,300.45a3,3,0,1,1-3-3A3,3,0,0,1,212.3,300.45Z"/></g><g class="cls-5"><path class="cls-10" d="M219.74,300.45a3,3,0,1,1-3-3A3,3,0,0,1,219.74,300.45Z"/></g><g class="cls-5"><path class="cls-10" d="M227.18,300.45a3,3,0,1,1-3-3A3,3,0,0,1,227.18,300.45Z"/></g><g class="cls-5"><path class="cls-10" d="M234.63,300.45a3,3,0,1,1-3-3A3,3,0,0,1,234.63,300.45Z"/></g><g class="cls-5"><path class="cls-10" d="M242.07,300.45a3,3,0,1,1-3-3A3,3,0,0,1,242.07,300.45Z"/></g><g class="cls-5"><path class="cls-10" d="M249.51,300.45a3,3,0,1,1-3-3A3,3,0,0,1,249.51,300.45Z"/></g><g class="cls-5"><path class="cls-10" d="M257,300.45a3,3,0,1,1-3-3A3,3,0,0,1,257,300.45Z"/></g><g class="cls-5"><path class="cls-10" d="M264.4,300.45a3,3,0,1,1-3-3A3,3,0,0,1,264.4,300.45Z"/></g><g class="cls-5"><path class="cls-10" d="M271.84,300.45a3,3,0,1,1-3-3A3,3,0,0,1,271.84,300.45Z"/></g><g class="cls-5"><path class="cls-10" d="M279.28,300.45a3,3,0,1,1-3-3A3,3,0,0,1,279.28,300.45Z"/></g><g class="cls-5"><path class="cls-10" d="M286.73,300.45a3,3,0,1,1-3-3A3,3,0,0,1,286.73,300.45Z"/></g><g class="cls-5"><path class="cls-10" d="M294.17,300.45a3,3,0,1,1-3-3A3,3,0,0,1,294.17,300.45Z"/></g><g class="cls-5"><path class="cls-10" d="M301.61,300.45a3,3,0,1,1-3-3A3,3,0,0,1,301.61,300.45Z"/></g><g class="cls-5"><path class="cls-10" d="M309.06,300.45a3,3,0,1,1-3-3A3,3,0,0,1,309.06,300.45Z"/></g><g class="cls-5"><path class="cls-10" d="M316.5,300.45a3,3,0,1,1-3-3A3,3,0,0,1,316.5,300.45Z"/></g><g class="cls-5"><path class="cls-10" d="M323.94,300.45a3,3,0,1,1-3-3A3,3,0,0,1,323.94,300.45Z"/></g><g class="cls-5"><path class="cls-10" d="M331.39,300.45a3,3,0,1,1-3-3A3,3,0,0,1,331.39,300.45Z"/></g><g class="cls-5"><path class="cls-10" d="M338.83,300.45a3,3,0,1,1-3-3A3,3,0,0,1,338.83,300.45Z"/></g><g class="cls-5"><path class="cls-10" d="M346.27,300.45a3,3,0,1,1-3-3A3,3,0,0,1,346.27,300.45Z"/></g><g class="cls-5"><path class="cls-10" d="M353.72,300.45a3,3,0,1,1-3-3A3,3,0,0,1,353.72,300.45Z"/></g><g class="cls-5"><path class="cls-10" d="M361.16,300.45a3,3,0,1,1-3-3A3,3,0,0,1,361.16,300.45Z"/></g><g class="cls-5"><path class="cls-10" d="M368.6,300.45a3,3,0,1,1-3-3A3,3,0,0,1,368.6,300.45Z"/></g><g class="cls-5"><path class="cls-10" d="M376,300.45a3,3,0,1,1-3-3A3,3,0,0,1,376,300.45Z"/></g><g class="cls-5"><path class="cls-10" d="M383.49,300.45a3,3,0,1,1-3-3A3,3,0,0,1,383.49,300.45Z"/></g><g class="cls-5"><path class="cls-10" d="M390.93,300.45a3,3,0,1,1-3-3A3,3,0,0,1,390.93,300.45Z"/></g><g class="cls-5"><path class="cls-10" d="M398.37,300.45a3,3,0,1,1-3-3A3,3,0,0,1,398.37,300.45Z"/></g><g class="cls-5"><path class="cls-10" d="M405.82,300.45a3,3,0,1,1-3-3A3,3,0,0,1,405.82,300.45Z"/></g><g class="cls-5"><path class="cls-10" d="M413.26,300.45a3,3,0,1,1-3-3A3,3,0,0,1,413.26,300.45Z"/></g><g class="cls-5"><path class="cls-10" d="M420.7,300.45a3,3,0,1,1-3-3A3,3,0,0,1,420.7,300.45Z"/></g><g class="cls-5"><path class="cls-10" d="M428.15,300.45a3,3,0,1,1-3-3A3,3,0,0,1,428.15,300.45Z"/></g><g class="cls-5"><path class="cls-10" d="M435.59,300.45a3,3,0,1,1-3-3A3,3,0,0,1,435.59,300.45Z"/></g><g class="cls-5"><path class="cls-10" d="M443,300.45a3,3,0,1,1-3-3A3,3,0,0,1,443,300.45Z"/></g><g class="cls-5"><path class="cls-10" d="M450.48,300.45a3,3,0,1,1-3-3A3,3,0,0,1,450.48,300.45Z"/></g><g class="cls-5"><path class="cls-10" d="M457.92,300.45a3,3,0,1,1-3-3A3,3,0,0,1,457.92,300.45Z"/></g><g class="cls-5"><path class="cls-10" d="M465.36,300.45a3,3,0,1,1-3-3A3,3,0,0,1,465.36,300.45Z"/></g><g class="cls-5"><path class="cls-10" d="M472.8,300.45a3,3,0,1,1-3-3A3,3,0,0,1,472.8,300.45Z"/></g><g class="cls-5"><path class="cls-10" d="M480.25,300.45a3,3,0,1,1-3-3A3,3,0,0,1,480.25,300.45Z"/></g><g class="cls-5"><path class="cls-10" d="M487.69,300.45a3,3,0,1,1-3-3A3,3,0,0,1,487.69,300.45Z"/></g><g class="cls-5"><path class="cls-10" d="M495.13,300.45a3,3,0,1,1-3-3A3,3,0,0,1,495.13,300.45Z"/></g><g class="cls-5"><path class="cls-10" d="M502.58,300.45a3,3,0,1,1-3-3A3,3,0,0,1,502.58,300.45Z"/></g><g class="cls-5"><path class="cls-10" d="M510,300.45a3,3,0,1,1-3-3A3,3,0,0,1,510,300.45Z"/></g><g class="cls-5"><path class="cls-10" d="M517.46,300.45a3,3,0,1,1-3-3A3,3,0,0,1,517.46,300.45Z"/></g><g class="cls-5"><path class="cls-10" d="M524.91,300.45a3,3,0,1,1-3-3A3,3,0,0,1,524.91,300.45Z"/></g><g class="cls-5"><path class="cls-10" d="M532.35,300.45a3,3,0,1,1-3-3A3,3,0,0,1,532.35,300.45Z"/></g><g class="cls-5"><path class="cls-10" d="M539.79,300.45a3,3,0,1,1-3-3A3,3,0,0,1,539.79,300.45Z"/></g><g class="cls-5"><path class="cls-10" d="M547.23,300.45a3,3,0,1,1-3-3A3,3,0,0,1,547.23,300.45Z"/></g><g class="cls-5"><path class="cls-10" d="M554.68,300.45a3,3,0,1,1-3-3A3,3,0,0,1,554.68,300.45Z"/></g><g class="cls-5"><path class="cls-10" d="M562.12,300.45a3,3,0,1,1-3-3A3,3,0,0,1,562.12,300.45Z"/></g><g class="cls-5"><path class="cls-10" d="M569.56,300.45a3,3,0,1,1-3-3A3,3,0,0,1,569.56,300.45Z"/></g><g class="cls-5"><path class="cls-10" d="M577,300.45a3,3,0,1,1-3-3A3,3,0,0,1,577,300.45Z"/></g><g class="cls-5"><path class="cls-10" d="M584.45,300.45a3,3,0,1,1-3-3A3,3,0,0,1,584.45,300.45Z"/></g><g class="cls-5"><path class="cls-10" d="M48.55,300.45a3,3,0,1,1-3-3A3,3,0,0,1,48.55,300.45Z"/></g><g class="cls-5"><path class="cls-10" d="M56,300.45a3,3,0,1,1-3-3A3,3,0,0,1,56,300.45Z"/></g><g class="cls-5"><path class="cls-10" d="M63.44,300.45a3,3,0,1,1-3-3A3,3,0,0,1,63.44,300.45Z"/></g><g class="cls-5"><path class="cls-10" d="M70.88,300.45a3,3,0,1,1-3-3A3,3,0,0,1,70.88,300.45Z"/></g><g class="cls-5"><path class="cls-10" d="M78.32,300.45a3,3,0,1,1-3-3A3,3,0,0,1,78.32,300.45Z"/></g><g class="cls-5"><path class="cls-10" d="M85.77,300.45a3,3,0,1,1-3-3A3,3,0,0,1,85.77,300.45Z"/></g><g class="cls-5"><path class="cls-10" d="M93.21,297.8a3,3,0,1,1-3-3A3,3,0,0,1,93.21,297.8Z"/></g><g class="cls-5"><path class="cls-10" d="M100.65,300.45a3,3,0,1,1-3-3A3,3,0,0,1,100.65,300.45Z"/></g><g class="cls-5"><path class="cls-10" d="M108.09,300.45a3,3,0,1,1-3-3A3,3,0,0,1,108.09,300.45Z"/></g><g class="cls-5"><path class="cls-10" d="M115.54,300.45a3,3,0,1,1-3-3A3,3,0,0,1,115.54,300.45Z"/></g><g class="cls-5"><path class="cls-10" d="M123,297.8a3,3,0,1,1-3-3A3,3,0,0,1,123,297.8Z"/></g><g class="cls-5"><path class="cls-10" d="M130.42,300.45a3,3,0,1,1-3-3A3,3,0,0,1,130.42,300.45Z"/></g><g class="cls-5"><path class="cls-10" d="M137.87,287.19a3,3,0,1,1-3-3A3,3,0,0,1,137.87,287.19Z"/></g><g class="cls-5"><path class="cls-10" d="M145.31,260.67a3,3,0,1,1-3-3A3,3,0,0,1,145.31,260.67Z"/></g><g class="cls-5"><path class="cls-10" d="M152.75,300.45a3,3,0,1,1-3-3A3,3,0,0,1,152.75,300.45Z"/></g><g class="cls-5"><path class="cls-10" d="M160.2,300.45a3,3,0,1,1-3-3A3,3,0,0,1,160.2,300.45Z"/></g><g class="cls-5"><path class="cls-10" d="M167.64,273.93a3,3,0,1,1-3-3A3,3,0,0,1,167.64,273.93Z"/></g><g class="cls-5"><path class="cls-10" d="M175.08,149.28a3,3,0,1,1-3-3A3,3,0,0,1,175.08,149.28Z"/></g><g class="cls-5"><path class="cls-10" d="M182.52,186.41a3,3,0,1,1-3-3A3,3,0,0,1,182.52,186.41Z"/></g><g class="cls-5"><path class="cls-10" d="M190,181.11a3,3,0,1,1-3-3A3,3,0,0,1,190,181.11Z"/></g><g class="cls-5"><path class="cls-10" d="M197.41,199.67a3,3,0,1,1-3-3A3,3,0,0,1,197.41,199.67Z"/></g><g class="cls-5"><path class="cls-10" d="M204.85,173.15a3,3,0,1,1-3-3A3,3,0,0,1,204.85,173.15Z"/></g><g class="cls-5"><path class="cls-10" d="M212.3,189.06a3,3,0,1,1-3-3A3,3,0,0,1,212.3,189.06Z"/></g><g class="cls-5"><path class="cls-10" d="M219.74,151.93a3,3,0,1,1-3-3A3,3,0,0,1,219.74,151.93Z"/></g><g class="cls-5"><path class="cls-10" d="M227.18,178.45a3,3,0,1,1-3-3A3,3,0,0,1,227.18,178.45Z"/></g><g class="cls-5"><path class="cls-10" d="M234.63,197a3,3,0,1,1-3-3A3,3,0,0,1,234.63,197Z"/></g><g class="cls-5"><path class="cls-10" d="M242.07,236.8a3,3,0,1,1-3-3A3,3,0,0,1,242.07,236.8Z"/></g><g class="cls-5"><path class="cls-10" d="M249.51,228.84a3,3,0,1,1-3-3A3,3,0,0,1,249.51,228.84Z"/></g><g class="cls-5"><path class="cls-10" d="M257,236.8a3,3,0,1,1-3-3A3,3,0,0,1,257,236.8Z"/></g><g class="cls-5"><path class="cls-10" d="M264.4,242.1a3,3,0,1,1-3-3A3,3,0,0,1,264.4,242.1Z"/></g><g class="cls-5"><path class="cls-10" d="M271.84,242.1a3,3,0,1,1-3-3A3,3,0,0,1,271.84,242.1Z"/></g><g class="cls-5"><path class="cls-10" d="M279.28,247.41a3,3,0,1,1-3-3A3,3,0,0,1,279.28,247.41Z"/></g><g class="cls-5"><path class="cls-10" d="M286.73,247.41a3,3,0,1,1-3-3A3,3,0,0,1,286.73,247.41Z"/></g><g class="cls-5"><path class="cls-10" d="M294.17,250.06a3,3,0,1,1-3-3A3,3,0,0,1,294.17,250.06Z"/></g><g class="cls-5"><path class="cls-10" d="M301.61,260.67a3,3,0,1,1-3-3A3,3,0,0,1,301.61,260.67Z"/></g><g class="cls-5"><path class="cls-10" d="M309.06,263.32a3,3,0,1,1-3-3A3,3,0,0,1,309.06,263.32Z"/></g><g class="cls-5"><path class="cls-10" d="M316.5,258a3,3,0,1,1-3-3A3,3,0,0,1,316.5,258Z"/></g><g class="cls-5"><path class="cls-10" d="M323.94,252.71a3,3,0,1,1-3-3A3,3,0,0,1,323.94,252.71Z"/></g><g class="cls-5"><path class="cls-10" d="M331.39,252.71a3,3,0,1,1-3-3A3,3,0,0,1,331.39,252.71Z"/></g><g class="cls-5"><path class="cls-10" d="M338.83,252.71a3,3,0,1,1-3-3A3,3,0,0,1,338.83,252.71Z"/></g><g class="cls-5"><path class="cls-10" d="M346.27,255.36a3,3,0,1,1-3-3A3,3,0,0,1,346.27,255.36Z"/></g><g class="cls-5"><path class="cls-10" d="M353.72,263.32a3,3,0,1,1-3-3A3,3,0,0,1,353.72,263.32Z"/></g><g class="cls-5"><path class="cls-10" d="M361.16,263.32a3,3,0,1,1-3-3A3,3,0,0,1,361.16,263.32Z"/></g><g class="cls-5"><path class="cls-10" d="M368.6,260.67a3,3,0,1,1-3-3A3,3,0,0,1,368.6,260.67Z"/></g><g class="cls-5"><path class="cls-10" d="M376,271.28a3,3,0,1,1-3-3A3,3,0,0,1,376,271.28Z"/></g><g class="cls-5"><path class="cls-10" d="M383.49,279.23a3,3,0,1,1-3-3A3,3,0,0,1,383.49,279.23Z"/></g><g class="cls-5"><path class="cls-10" d="M390.93,281.89a3,3,0,1,1-3-3A3,3,0,0,1,390.93,281.89Z"/></g><g class="cls-5"><path class="cls-10" d="M398.37,284.54a3,3,0,1,1-3-3A3,3,0,0,1,398.37,284.54Z"/></g><g class="cls-5"><path class="cls-10" d="M405.82,300.45a3,3,0,1,1-3-3A3,3,0,0,1,405.82,300.45Z"/></g><g class="cls-5"><path class="cls-10" d="M413.26,300.45a3,3,0,1,1-3-3A3,3,0,0,1,413.26,300.45Z"/></g><g class="cls-5"><path class="cls-10" d="M420.7,300.45a3,3,0,1,1-3-3A3,3,0,0,1,420.7,300.45Z"/></g><g class="cls-5"><path class="cls-10" d="M428.15,300.45a3,3,0,1,1-3-3A3,3,0,0,1,428.15,300.45Z"/></g><g class="cls-5"><path class="cls-10" d="M435.59,300.45a3,3,0,1,1-3-3A3,3,0,0,1,435.59,300.45Z"/></g><g class="cls-5"><path class="cls-10" d="M443,300.45a3,3,0,1,1-3-3A3,3,0,0,1,443,300.45Z"/></g><g class="cls-5"><path class="cls-10" d="M450.48,300.45a3,3,0,1,1-3-3A3,3,0,0,1,450.48,300.45Z"/></g><g class="cls-5"><path class="cls-10" d="M457.92,300.45a3,3,0,1,1-3-3A3,3,0,0,1,457.92,300.45Z"/></g><g class="cls-5"><path class="cls-10" d="M465.36,300.45a3,3,0,1,1-3-3A3,3,0,0,1,465.36,300.45Z"/></g><g class="cls-5"><path class="cls-10" d="M472.8,300.45a3,3,0,1,1-3-3A3,3,0,0,1,472.8,300.45Z"/></g><g class="cls-5"><path class="cls-10" d="M480.25,300.45a3,3,0,1,1-3-3A3,3,0,0,1,480.25,300.45Z"/></g><g class="cls-5"><path class="cls-10" d="M487.69,300.45a3,3,0,1,1-3-3A3,3,0,0,1,487.69,300.45Z"/></g><g class="cls-5"><path class="cls-10" d="M495.13,300.45a3,3,0,1,1-3-3A3,3,0,0,1,495.13,300.45Z"/></g><g class="cls-5"><path class="cls-10" d="M502.58,300.45a3,3,0,1,1-3-3A3,3,0,0,1,502.58,300.45Z"/></g><g class="cls-5"><path class="cls-10" d="M510,300.45a3,3,0,1,1-3-3A3,3,0,0,1,510,300.45Z"/></g><g class="cls-5"><path class="cls-10" d="M517.46,300.45a3,3,0,1,1-3-3A3,3,0,0,1,517.46,300.45Z"/></g><g class="cls-5"><path class="cls-10" d="M524.91,300.45a3,3,0,1,1-3-3A3,3,0,0,1,524.91,300.45Z"/></g><g class="cls-5"><path class="cls-10" d="M532.35,300.45a3,3,0,1,1-3-3A3,3,0,0,1,532.35,300.45Z"/></g><g class="cls-5"><path class="cls-10" d="M539.79,300.45a3,3,0,1,1-3-3A3,3,0,0,1,539.79,300.45Z"/></g><g class="cls-5"><path class="cls-10" d="M547.23,300.45a3,3,0,1,1-3-3A3,3,0,0,1,547.23,300.45Z"/></g><g class="cls-5"><path class="cls-10" d="M554.68,300.45a3,3,0,1,1-3-3A3,3,0,0,1,554.68,300.45Z"/></g><g class="cls-5"><path class="cls-10" d="M562.12,300.45a3,3,0,1,1-3-3A3,3,0,0,1,562.12,300.45Z"/></g><g class="cls-5"><path class="cls-10" d="M569.56,300.45a3,3,0,1,1-3-3A3,3,0,0,1,569.56,300.45Z"/></g><g class="cls-5"><path class="cls-10" d="M577,300.45a3,3,0,1,1-3-3A3,3,0,0,1,577,300.45Z"/></g><g class="cls-5"><path class="cls-10" d="M584.45,300.45a3,3,0,1,1-3-3A3,3,0,0,1,584.45,300.45Z"/></g><g class="cls-5"><path class="cls-10" d="M48.55,300.45a3,3,0,1,1-3-3A3,3,0,0,1,48.55,300.45Z"/></g><g class="cls-5"><path class="cls-10" d="M56,300.45a3,3,0,1,1-3-3A3,3,0,0,1,56,300.45Z"/></g><g class="cls-5"><path class="cls-10" d="M63.44,300.45a3,3,0,1,1-3-3A3,3,0,0,1,63.44,300.45Z"/></g><g class="cls-5"><path class="cls-10" d="M70.88,300.45a3,3,0,1,1-3-3A3,3,0,0,1,70.88,300.45Z"/></g><g class="cls-5"><path class="cls-10" d="M78.32,297.8a3,3,0,1,1-3-3A3,3,0,0,1,78.32,297.8Z"/></g><g class="cls-5"><path class="cls-10" d="M85.77,300.45a3,3,0,1,1-3-3A3,3,0,0,1,85.77,300.45Z"/></g><g class="cls-5"><path class="cls-10" d="M93.21,295.15a3,3,0,1,1-3-3A3,3,0,0,1,93.21,295.15Z"/></g><g class="cls-5"><path class="cls-10" d="M100.65,300.45a3,3,0,1,1-3-3A3,3,0,0,1,100.65,300.45Z"/></g><g class="cls-5"><path class="cls-10" d="M108.09,287.19a3,3,0,1,1-3-3A3,3,0,0,1,108.09,287.19Z"/></g><g class="cls-5"><path class="cls-10" d="M115.54,273.93a3,3,0,1,1-3-3A3,3,0,0,1,115.54,273.93Z"/></g><g class="cls-5"><path class="cls-10" d="M123,284.54a3,3,0,1,1-3-3A3,3,0,0,1,123,284.54Z"/></g><g class="cls-5"><path class="cls-10" d="M130.42,276.58a3,3,0,1,1-3-3A3,3,0,0,1,130.42,276.58Z"/></g><g class="cls-5"><path class="cls-10" d="M137.87,258a3,3,0,1,1-3-3A3,3,0,0,1,137.87,258Z"/></g><g class="cls-5"><path class="cls-10" d="M145.31,210.28a3,3,0,1,1-3-3A3,3,0,0,1,145.31,210.28Z"/></g><g class="cls-5"><path class="cls-10" d="M152.75,300.45a3,3,0,1,1-3-3A3,3,0,0,1,152.75,300.45Z"/></g><g class="cls-5"><path class="cls-10" d="M160.2,300.45a3,3,0,1,1-3-3A3,3,0,0,1,160.2,300.45Z"/></g><g class="cls-5"><path class="cls-10" d="M167.64,146.63a3,3,0,1,1-3-3A3,3,0,0,1,167.64,146.63Z"/></g><g class="cls-5"><path class="cls-10" d="M175.08,93.59a3,3,0,1,1-3-3A3,3,0,0,1,175.08,93.59Z"/></g><g class="cls-5"><path class="cls-10" d="M182.52,300.45a3,3,0,1,1-3-3A3,3,0,0,1,182.52,300.45Z"/></g><g class="cls-5"><path class="cls-10" d="M190,300.45a3,3,0,1,1-3-3A3,3,0,0,1,190,300.45Z"/></g><g class="cls-5"><path class="cls-10" d="M197.41,300.45a3,3,0,1,1-3-3A3,3,0,0,1,197.41,300.45Z"/></g><g class="cls-5"><path class="cls-10" d="M204.85,300.45a3,3,0,1,1-3-3A3,3,0,0,1,204.85,300.45Z"/></g><g class="cls-5"><path class="cls-10" d="M212.3,300.45a3,3,0,1,1-3-3A3,3,0,0,1,212.3,300.45Z"/></g><g class="cls-5"><path class="cls-10" d="M219.74,300.45a3,3,0,1,1-3-3A3,3,0,0,1,219.74,300.45Z"/></g><g class="cls-5"><path class="cls-10" d="M227.18,300.45a3,3,0,1,1-3-3A3,3,0,0,1,227.18,300.45Z"/></g><g class="cls-5"><path class="cls-10" d="M234.63,300.45a3,3,0,1,1-3-3A3,3,0,0,1,234.63,300.45Z"/></g><g class="cls-5"><path class="cls-10" d="M242.07,300.45a3,3,0,1,1-3-3A3,3,0,0,1,242.07,300.45Z"/></g><g class="cls-5"><path class="cls-10" d="M249.51,300.45a3,3,0,1,1-3-3A3,3,0,0,1,249.51,300.45Z"/></g><g class="cls-5"><path class="cls-10" d="M257,300.45a3,3,0,1,1-3-3A3,3,0,0,1,257,300.45Z"/></g><g class="cls-5"><path class="cls-10" d="M264.4,300.45a3,3,0,1,1-3-3A3,3,0,0,1,264.4,300.45Z"/></g><g class="cls-5"><path class="cls-10" d="M271.84,300.45a3,3,0,1,1-3-3A3,3,0,0,1,271.84,300.45Z"/></g><g class="cls-5"><path class="cls-10" d="M279.28,300.45a3,3,0,1,1-3-3A3,3,0,0,1,279.28,300.45Z"/></g><g class="cls-5"><path class="cls-10" d="M286.73,300.45a3,3,0,1,1-3-3A3,3,0,0,1,286.73,300.45Z"/></g><g class="cls-5"><path class="cls-10" d="M294.17,300.45a3,3,0,1,1-3-3A3,3,0,0,1,294.17,300.45Z"/></g><g class="cls-5"><path class="cls-10" d="M301.61,300.45a3,3,0,1,1-3-3A3,3,0,0,1,301.61,300.45Z"/></g><g class="cls-5"><path class="cls-10" d="M309.06,300.45a3,3,0,1,1-3-3A3,3,0,0,1,309.06,300.45Z"/></g><g class="cls-5"><path class="cls-10" d="M316.5,300.45a3,3,0,1,1-3-3A3,3,0,0,1,316.5,300.45Z"/></g><g class="cls-5"><path class="cls-10" d="M323.94,300.45a3,3,0,1,1-3-3A3,3,0,0,1,323.94,300.45Z"/></g><g class="cls-5"><path class="cls-10" d="M331.39,300.45a3,3,0,1,1-3-3A3,3,0,0,1,331.39,300.45Z"/></g><g class="cls-5"><path class="cls-10" d="M338.83,300.45a3,3,0,1,1-3-3A3,3,0,0,1,338.83,300.45Z"/></g><g class="cls-5"><path class="cls-10" d="M346.27,300.45a3,3,0,1,1-3-3A3,3,0,0,1,346.27,300.45Z"/></g><g class="cls-5"><path class="cls-10" d="M353.72,300.45a3,3,0,1,1-3-3A3,3,0,0,1,353.72,300.45Z"/></g><g class="cls-5"><path class="cls-10" d="M361.16,300.45a3,3,0,1,1-3-3A3,3,0,0,1,361.16,300.45Z"/></g><g class="cls-5"><path class="cls-10" d="M368.6,300.45a3,3,0,1,1-3-3A3,3,0,0,1,368.6,300.45Z"/></g><g class="cls-5"><path class="cls-10" d="M376,300.45a3,3,0,1,1-3-3A3,3,0,0,1,376,300.45Z"/></g><g class="cls-5"><path class="cls-10" d="M383.49,300.45a3,3,0,1,1-3-3A3,3,0,0,1,383.49,300.45Z"/></g><g class="cls-5"><path class="cls-10" d="M390.93,300.45a3,3,0,1,1-3-3A3,3,0,0,1,390.93,300.45Z"/></g><g class="cls-5"><path class="cls-10" d="M398.37,300.45a3,3,0,1,1-3-3A3,3,0,0,1,398.37,300.45Z"/></g><g class="cls-5"><path class="cls-10" d="M405.82,300.45a3,3,0,1,1-3-3A3,3,0,0,1,405.82,300.45Z"/></g><g class="cls-5"><path class="cls-10" d="M413.26,300.45a3,3,0,1,1-3-3A3,3,0,0,1,413.26,300.45Z"/></g><g class="cls-5"><path class="cls-10" d="M420.7,300.45a3,3,0,1,1-3-3A3,3,0,0,1,420.7,300.45Z"/></g><g class="cls-5"><path class="cls-10" d="M428.15,300.45a3,3,0,1,1-3-3A3,3,0,0,1,428.15,300.45Z"/></g><g class="cls-5"><path class="cls-10" d="M435.59,300.45a3,3,0,1,1-3-3A3,3,0,0,1,435.59,300.45Z"/></g><g class="cls-5"><path class="cls-10" d="M443,300.45a3,3,0,1,1-3-3A3,3,0,0,1,443,300.45Z"/></g><g class="cls-5"><path class="cls-10" d="M450.48,300.45a3,3,0,1,1-3-3A3,3,0,0,1,450.48,300.45Z"/></g><g class="cls-5"><path class="cls-10" d="M457.92,300.45a3,3,0,1,1-3-3A3,3,0,0,1,457.92,300.45Z"/></g><g class="cls-5"><path class="cls-10" d="M465.36,300.45a3,3,0,1,1-3-3A3,3,0,0,1,465.36,300.45Z"/></g><g class="cls-5"><path class="cls-10" d="M472.8,300.45a3,3,0,1,1-3-3A3,3,0,0,1,472.8,300.45Z"/></g><g class="cls-5"><path class="cls-10" d="M480.25,300.45a3,3,0,1,1-3-3A3,3,0,0,1,480.25,300.45Z"/></g><g class="cls-5"><path class="cls-10" d="M487.69,300.45a3,3,0,1,1-3-3A3,3,0,0,1,487.69,300.45Z"/></g><g class="cls-5"><path class="cls-10" d="M495.13,300.45a3,3,0,1,1-3-3A3,3,0,0,1,495.13,300.45Z"/></g><g class="cls-5"><path class="cls-10" d="M502.58,300.45a3,3,0,1,1-3-3A3,3,0,0,1,502.58,300.45Z"/></g><g class="cls-5"><path class="cls-10" d="M510,300.45a3,3,0,1,1-3-3A3,3,0,0,1,510,300.45Z"/></g><g class="cls-5"><path class="cls-10" d="M517.46,300.45a3,3,0,1,1-3-3A3,3,0,0,1,517.46,300.45Z"/></g><g class="cls-5"><path class="cls-10" d="M524.91,300.45a3,3,0,1,1-3-3A3,3,0,0,1,524.91,300.45Z"/></g><g class="cls-5"><path class="cls-10" d="M532.35,300.45a3,3,0,1,1-3-3A3,3,0,0,1,532.35,300.45Z"/></g><g class="cls-5"><path class="cls-10" d="M539.79,300.45a3,3,0,1,1-3-3A3,3,0,0,1,539.79,300.45Z"/></g><g class="cls-5"><path class="cls-10" d="M547.23,300.45a3,3,0,1,1-3-3A3,3,0,0,1,547.23,300.45Z"/></g><g class="cls-5"><path class="cls-10" d="M554.68,300.45a3,3,0,1,1-3-3A3,3,0,0,1,554.68,300.45Z"/></g><g class="cls-5"><path class="cls-10" d="M562.12,300.45a3,3,0,1,1-3-3A3,3,0,0,1,562.12,300.45Z"/></g><g class="cls-5"><path class="cls-10" d="M569.56,300.45a3,3,0,1,1-3-3A3,3,0,0,1,569.56,300.45Z"/></g><g class="cls-5"><path class="cls-10" d="M577,300.45a3,3,0,1,1-3-3A3,3,0,0,1,577,300.45Z"/></g><g class="cls-5"><path class="cls-10" d="M584.45,300.45a3,3,0,1,1-3-3A3,3,0,0,1,584.45,300.45Z"/></g><g class="cls-5"><path class="cls-10" d="M48.55,300.45a3,3,0,1,1-3-3A3,3,0,0,1,48.55,300.45Z"/></g><g class="cls-5"><path class="cls-10" d="M56,300.45a3,3,0,1,1-3-3A3,3,0,0,1,56,300.45Z"/></g><g class="cls-5"><path class="cls-10" d="M63.44,300.45a3,3,0,1,1-3-3A3,3,0,0,1,63.44,300.45Z"/></g><g class="cls-5"><path class="cls-10" d="M70.88,300.45a3,3,0,1,1-3-3A3,3,0,0,1,70.88,300.45Z"/></g><g class="cls-5"><path class="cls-10" d="M78.32,300.45a3,3,0,1,1-3-3A3,3,0,0,1,78.32,300.45Z"/></g><g class="cls-5"><path class="cls-10" d="M85.77,300.45a3,3,0,1,1-3-3A3,3,0,0,1,85.77,300.45Z"/></g><g class="cls-5"><path class="cls-10" d="M93.21,300.45a3,3,0,1,1-3-3A3,3,0,0,1,93.21,300.45Z"/></g><g class="cls-5"><path class="cls-10" d="M100.65,300.45a3,3,0,1,1-3-3A3,3,0,0,1,100.65,300.45Z"/></g><g class="cls-5"><path class="cls-10" d="M108.09,300.45a3,3,0,1,1-3-3A3,3,0,0,1,108.09,300.45Z"/></g><g class="cls-5"><path class="cls-10" d="M115.54,300.45a3,3,0,1,1-3-3A3,3,0,0,1,115.54,300.45Z"/></g><g class="cls-5"><path class="cls-10" d="M123,300.45a3,3,0,1,1-3-3A3,3,0,0,1,123,300.45Z"/></g><g class="cls-5"><path class="cls-10" d="M130.42,300.45a3,3,0,1,1-3-3A3,3,0,0,1,130.42,300.45Z"/></g><g class="cls-5"><path class="cls-10" d="M137.87,300.45a3,3,0,1,1-3-3A3,3,0,0,1,137.87,300.45Z"/></g><g class="cls-5"><path class="cls-10" d="M145.31,300.45a3,3,0,1,1-3-3A3,3,0,0,1,145.31,300.45Z"/></g><g class="cls-5"><path class="cls-10" d="M152.75,300.45a3,3,0,1,1-3-3A3,3,0,0,1,152.75,300.45Z"/></g><g class="cls-5"><path class="cls-10" d="M160.2,300.45a3,3,0,1,1-3-3A3,3,0,0,1,160.2,300.45Z"/></g><g class="cls-5"><path class="cls-10" d="M167.64,297.8a3,3,0,1,1-3-3A3,3,0,0,1,167.64,297.8Z"/></g><g class="cls-5"><path class="cls-10" d="M175.08,297.8a3,3,0,1,1-3-3A3,3,0,0,1,175.08,297.8Z"/></g><g class="cls-5"><path class="cls-10" d="M182.52,300.45a3,3,0,1,1-3-3A3,3,0,0,1,182.52,300.45Z"/></g><g class="cls-5"><path class="cls-10" d="M190,276.58a3,3,0,1,1-3-3A3,3,0,0,1,190,276.58Z"/></g><g class="cls-5"><path class="cls-10" d="M197.41,263.32a3,3,0,1,1-3-3A3,3,0,0,1,197.41,263.32Z"/></g><g class="cls-5"><path class="cls-10" d="M204.85,252.71a3,3,0,1,1-3-3A3,3,0,0,1,204.85,252.71Z"/></g><g class="cls-5"><path class="cls-10" d="M212.3,255.36a3,3,0,1,1-3-3A3,3,0,0,1,212.3,255.36Z"/></g><g class="cls-5"><path class="cls-10" d="M219.74,255.36a3,3,0,1,1-3-3A3,3,0,0,1,219.74,255.36Z"/></g><g class="cls-5"><path class="cls-10" d="M227.18,250.06a3,3,0,1,1-3-3A3,3,0,0,1,227.18,250.06Z"/></g><g class="cls-5"><path class="cls-10" d="M234.63,258a3,3,0,1,1-3-3A3,3,0,0,1,234.63,258Z"/></g><g class="cls-5"><path class="cls-10" d="M242.07,239.45a3,3,0,1,1-3-3A3,3,0,0,1,242.07,239.45Z"/></g><g class="cls-5"><path class="cls-10" d="M249.51,236.8a3,3,0,1,1-3-3A3,3,0,0,1,249.51,236.8Z"/></g><g class="cls-5"><path class="cls-10" d="M257,255.36a3,3,0,1,1-3-3A3,3,0,0,1,257,255.36Z"/></g><g class="cls-5"><path class="cls-10" d="M264.4,244.76a3,3,0,1,1-3-3A3,3,0,0,1,264.4,244.76Z"/></g><g class="cls-5"><path class="cls-10" d="M271.84,250.06a3,3,0,1,1-3-3A3,3,0,0,1,271.84,250.06Z"/></g><g class="cls-5"><path class="cls-10" d="M279.28,244.76a3,3,0,1,1-3-3A3,3,0,0,1,279.28,244.76Z"/></g><g class="cls-5"><path class="cls-10" d="M286.73,236.8a3,3,0,1,1-3-3A3,3,0,0,1,286.73,236.8Z"/></g><g class="cls-5"><path class="cls-10" d="M294.17,218.24a3,3,0,1,1-3-3A3,3,0,0,1,294.17,218.24Z"/></g><g class="cls-5"><path class="cls-10" d="M301.61,218.24a3,3,0,1,1-3-3A3,3,0,0,1,301.61,218.24Z"/></g><g class="cls-5"><path class="cls-10" d="M309.06,236.8a3,3,0,1,1-3-3A3,3,0,0,1,309.06,236.8Z"/></g><g class="cls-5"><path class="cls-10" d="M316.5,244.76a3,3,0,1,1-3-3A3,3,0,0,1,316.5,244.76Z"/></g><g class="cls-5"><path class="cls-10" d="M323.94,250.06a3,3,0,1,1-3-3A3,3,0,0,1,323.94,250.06Z"/></g><g class="cls-5"><path class="cls-10" d="M331.39,234.15a3,3,0,1,1-3-3A3,3,0,0,1,331.39,234.15Z"/></g><g class="cls-5"><path class="cls-10" d="M338.83,228.84a3,3,0,1,1-3-3A3,3,0,0,1,338.83,228.84Z"/></g><g class="cls-5"><path class="cls-10" d="M346.27,273.93a3,3,0,1,1-3-3A3,3,0,0,1,346.27,273.93Z"/></g><g class="cls-5"><path class="cls-10" d="M353.72,300.45a3,3,0,1,1-3-3A3,3,0,0,1,353.72,300.45Z"/></g><g class="cls-5"><path class="cls-10" d="M361.16,239.45a3,3,0,1,1-3-3A3,3,0,0,1,361.16,239.45Z"/></g><g class="cls-5"><path class="cls-10" d="M368.6,258a3,3,0,1,1-3-3A3,3,0,0,1,368.6,258Z"/></g><g class="cls-5"><path class="cls-10" d="M376,281.89a3,3,0,1,1-3-3A3,3,0,0,1,376,281.89Z"/></g><g class="cls-5"><path class="cls-10" d="M383.49,297.8a3,3,0,1,1-3-3A3,3,0,0,1,383.49,297.8Z"/></g><g class="cls-5"><path class="cls-10" d="M390.93,300.45a3,3,0,1,1-3-3A3,3,0,0,1,390.93,300.45Z"/></g><g class="cls-5"><path class="cls-10" d="M398.37,300.45a3,3,0,1,1-3-3A3,3,0,0,1,398.37,300.45Z"/></g><g class="cls-5"><path class="cls-10" d="M405.82,300.45a3,3,0,1,1-3-3A3,3,0,0,1,405.82,300.45Z"/></g><g class="cls-5"><path class="cls-10" d="M413.26,300.45a3,3,0,1,1-3-3A3,3,0,0,1,413.26,300.45Z"/></g><g class="cls-5"><path class="cls-10" d="M420.7,300.45a3,3,0,1,1-3-3A3,3,0,0,1,420.7,300.45Z"/></g><g class="cls-5"><path class="cls-10" d="M428.15,300.45a3,3,0,1,1-3-3A3,3,0,0,1,428.15,300.45Z"/></g><g class="cls-5"><path class="cls-10" d="M435.59,300.45a3,3,0,1,1-3-3A3,3,0,0,1,435.59,300.45Z"/></g><g class="cls-5"><path class="cls-10" d="M443,300.45a3,3,0,1,1-3-3A3,3,0,0,1,443,300.45Z"/></g><g class="cls-5"><path class="cls-10" d="M450.48,300.45a3,3,0,1,1-3-3A3,3,0,0,1,450.48,300.45Z"/></g><g class="cls-5"><path class="cls-10" d="M457.92,300.45a3,3,0,1,1-3-3A3,3,0,0,1,457.92,300.45Z"/></g><g class="cls-5"><path class="cls-10" d="M465.36,300.45a3,3,0,1,1-3-3A3,3,0,0,1,465.36,300.45Z"/></g><g class="cls-5"><path class="cls-10" d="M472.8,300.45a3,3,0,1,1-3-3A3,3,0,0,1,472.8,300.45Z"/></g><g class="cls-5"><path class="cls-10" d="M480.25,300.45a3,3,0,1,1-3-3A3,3,0,0,1,480.25,300.45Z"/></g><g class="cls-5"><path class="cls-10" d="M487.69,300.45a3,3,0,1,1-3-3A3,3,0,0,1,487.69,300.45Z"/></g><g class="cls-5"><path class="cls-10" d="M495.13,300.45a3,3,0,1,1-3-3A3,3,0,0,1,495.13,300.45Z"/></g><g class="cls-5"><path class="cls-10" d="M502.58,300.45a3,3,0,1,1-3-3A3,3,0,0,1,502.58,300.45Z"/></g><g class="cls-5"><path class="cls-10" d="M510,300.45a3,3,0,1,1-3-3A3,3,0,0,1,510,300.45Z"/></g><g class="cls-5"><path class="cls-10" d="M517.46,300.45a3,3,0,1,1-3-3A3,3,0,0,1,517.46,300.45Z"/></g><g class="cls-5"><path class="cls-10" d="M524.91,300.45a3,3,0,1,1-3-3A3,3,0,0,1,524.91,300.45Z"/></g><g class="cls-5"><path class="cls-10" d="M532.35,300.45a3,3,0,1,1-3-3A3,3,0,0,1,532.35,300.45Z"/></g><g class="cls-5"><path class="cls-10" d="M539.79,300.45a3,3,0,1,1-3-3A3,3,0,0,1,539.79,300.45Z"/></g><g class="cls-5"><path class="cls-10" d="M547.23,300.45a3,3,0,1,1-3-3A3,3,0,0,1,547.23,300.45Z"/></g><g class="cls-5"><path class="cls-10" d="M554.68,300.45a3,3,0,1,1-3-3A3,3,0,0,1,554.68,300.45Z"/></g><g class="cls-5"><path class="cls-10" d="M562.12,300.45a3,3,0,1,1-3-3A3,3,0,0,1,562.12,300.45Z"/></g><g class="cls-5"><path class="cls-10" d="M569.56,300.45a3,3,0,1,1-3-3A3,3,0,0,1,569.56,300.45Z"/></g><g class="cls-5"><path class="cls-10" d="M577,300.45a3,3,0,1,1-3-3A3,3,0,0,1,577,300.45Z"/></g><g class="cls-5"><path class="cls-10" d="M584.45,300.45a3,3,0,1,1-3-3A3,3,0,0,1,584.45,300.45Z"/></g><path d="M303.84,349.45v-3.64l-3.31-4.95h1.39l1.69,2.59c.31.48.6,1,.87,1.45.26-.44.58-.95.94-1.51l1.67-2.53h1.32L305,345.81v3.64Zm9.71-2,1.09.13a2.63,2.63,0,0,1-.95,1.48,3.25,3.25,0,0,1-4-.31,3.32,3.32,0,0,1-.79-2.36,3.39,3.39,0,0,1,.81-2.42,2.71,2.71,0,0,1,2.09-.88,2.67,2.67,0,0,1,2,.84,3.37,3.37,0,0,1,.79,2.4v.28H310a2.44,2.44,0,0,0,.58,1.57,1.72,1.72,0,0,0,1.3.54,1.61,1.61,0,0,0,1-.3A2,2,0,0,0,313.55,347.45Zm-3.46-1.7h3.47a2.07,2.07,0,0,0-.39-1.19,1.63,1.63,0,0,0-1.31-.61,1.74,1.74,0,0,0-1.24.48A2,2,0,0,0,310.09,345.75Zm10.27,2.93a4,4,0,0,1-1.14.71,3.36,3.36,0,0,1-1.16.2,2.3,2.3,0,0,1-1.58-.5,1.66,1.66,0,0,1-.54-1.28,1.78,1.78,0,0,1,.2-.83,1.63,1.63,0,0,1,.55-.61,2.49,2.49,0,0,1,.76-.34,5.81,5.81,0,0,1,.94-.17,9.92,9.92,0,0,0,1.88-.36v-.27a1.18,1.18,0,0,0-.3-.92,1.81,1.81,0,0,0-1.2-.34,1.84,1.84,0,0,0-1.1.26,1.57,1.57,0,0,0-.53.91l-1-.14a2.51,2.51,0,0,1,.47-1.07,2.09,2.09,0,0,1,.94-.62,4,4,0,0,1,1.4-.22,3.64,3.64,0,0,1,1.3.19,1.62,1.62,0,0,1,.73.47,1.5,1.5,0,0,1,.33.72,6.5,6.5,0,0,1,.05,1v1.41a16.75,16.75,0,0,0,.06,1.86,2.62,2.62,0,0,0,.28.75h-1.11A2.41,2.41,0,0,1,320.36,348.68Zm-.09-2.35a8.3,8.3,0,0,1-1.72.4,3.71,3.71,0,0,0-.93.22,1,1,0,0,0-.42.33.94.94,0,0,0,.18,1.2,1.36,1.36,0,0,0,.93.28,2.21,2.21,0,0,0,1.08-.26,1.57,1.57,0,0,0,.7-.74,2.4,2.4,0,0,0,.18-1Zm3,3.12v-6.22h1v.94a2.44,2.44,0,0,1,.66-.86,1.16,1.16,0,0,1,.69-.22,2.11,2.11,0,0,1,1.08.33l-.36,1a1.55,1.55,0,0,0-.77-.23,1,1,0,0,0-.64.22,1,1,0,0,0-.37.58,3.65,3.65,0,0,0-.19,1.21v3.27Z"/><path d="M33.05,300.22a7.84,7.84,0,0,1,.31-2.46,3.09,3.09,0,0,1,.92-1.43,2.71,2.71,0,0,1,2.77-.22,2.18,2.18,0,0,1,.87.81,4.06,4.06,0,0,1,.54,1.26,9.13,9.13,0,0,1,.18,2,7.68,7.68,0,0,1-.31,2.43,3,3,0,0,1-.92,1.44,2.64,2.64,0,0,1-3.52-.39A5.67,5.67,0,0,1,33.05,300.22Zm1.08,0a5.28,5.28,0,0,0,.5,2.81,1.41,1.41,0,0,0,2.44,0,8.17,8.17,0,0,0,0-5.63,1.46,1.46,0,0,0-1.24-.7,1.37,1.37,0,0,0-1.16.61A5.5,5.5,0,0,0,34.13,300.22Z"/><path d="M31.6,250.39v1H25.91a2.34,2.34,0,0,1,.12-.74,4.34,4.34,0,0,1,.69-1.14,11.56,11.56,0,0,1,1.39-1.29A11.08,11.08,0,0,0,30,246.41a2.12,2.12,0,0,0,.5-1.27,1.37,1.37,0,0,0-.45-1,1.58,1.58,0,0,0-1.17-.44,1.65,1.65,0,0,0-1.22.45,1.78,1.78,0,0,0-.47,1.27l-1.08-.11a2.7,2.7,0,0,1,.83-1.85,2.93,2.93,0,0,1,2-.64,2.7,2.7,0,0,1,1.95.69,2.27,2.27,0,0,1,.72,1.7,2.43,2.43,0,0,1-.22,1,4,4,0,0,1-.7,1.05,17.76,17.76,0,0,1-1.61,1.5,14.48,14.48,0,0,0-1.23,1.09,3.46,3.46,0,0,0-.44.56Zm1.45-3.22a7.81,7.81,0,0,1,.31-2.45,3.18,3.18,0,0,1,.92-1.44,2.46,2.46,0,0,1,1.57-.5,2.53,2.53,0,0,1,1.2.28,2.28,2.28,0,0,1,.87.82,4.06,4.06,0,0,1,.54,1.26,9.09,9.09,0,0,1,.18,2,7.74,7.74,0,0,1-.31,2.44,3,3,0,0,1-.92,1.44,2.64,2.64,0,0,1-3.52-.39A5.68,5.68,0,0,1,33.05,247.17Zm1.08,0a5.3,5.3,0,0,0,.5,2.82,1.41,1.41,0,0,0,2.44,0,5.4,5.4,0,0,0,.5-2.82,5.34,5.34,0,0,0-.5-2.81,1.46,1.46,0,0,0-1.24-.7,1.37,1.37,0,0,0-1.16.61A5.48,5.48,0,0,0,34.13,247.17Z"/><path d="M29.42,198.37V196.3H25.71v-1l3.92-5.57h.86v5.57h1.15v1H30.49v2.07Zm0-3v-3.86l-2.68,3.86Zm3.63-1.21a7.77,7.77,0,0,1,.31-2.45,3.07,3.07,0,0,1,.92-1.44,2.46,2.46,0,0,1,1.57-.5,2.53,2.53,0,0,1,1.2.28,2.28,2.28,0,0,1,.87.82,4.06,4.06,0,0,1,.54,1.26,9.09,9.09,0,0,1,.18,2,7.74,7.74,0,0,1-.31,2.44,3,3,0,0,1-.92,1.44,2.64,2.64,0,0,1-3.52-.39A5.68,5.68,0,0,1,33.05,194.13Zm1.08,0a5.24,5.24,0,0,0,.5,2.81,1.4,1.4,0,0,0,2.44,0,8.15,8.15,0,0,0,0-5.62,1.46,1.46,0,0,0-1.24-.7,1.37,1.37,0,0,0-1.16.61A5.48,5.48,0,0,0,34.13,194.13Z"/><path d="M31.52,138.84l-1.05.08a2,2,0,0,0-.39-.91,1.41,1.41,0,0,0-1.06-.45,1.47,1.47,0,0,0-.89.28,2.56,2.56,0,0,0-.78,1.08,5.5,5.5,0,0,0-.3,2A2.43,2.43,0,0,1,28,140a2.58,2.58,0,0,1,1.17-.28,2.34,2.34,0,0,1,1.78.78,2.77,2.77,0,0,1,.75,2,3.26,3.26,0,0,1-.35,1.51,2.56,2.56,0,0,1-1,1.07,2.62,2.62,0,0,1-1.37.36,2.72,2.72,0,0,1-2.16-1,4.92,4.92,0,0,1-.83-3.19,5.75,5.75,0,0,1,.92-3.63,2.66,2.66,0,0,1,2.16-1,2.33,2.33,0,0,1,2.44,2.14Zm-4.3,3.7a2.5,2.5,0,0,0,.22,1.05,1.89,1.89,0,0,0,.64.75,1.63,1.63,0,0,0,.89.27,1.48,1.48,0,0,0,1.14-.54,2.08,2.08,0,0,0,.49-1.46,1.94,1.94,0,0,0-.49-1.41,1.55,1.55,0,0,0-1.19-.52,1.64,1.64,0,0,0-1.21.52A1.84,1.84,0,0,0,27.22,142.54Zm5.83-1.45a7.77,7.77,0,0,1,.31-2.45,3.07,3.07,0,0,1,.92-1.44,2.46,2.46,0,0,1,1.57-.5,2.42,2.42,0,0,1,1.2.28,2.33,2.33,0,0,1,.87.81,4.23,4.23,0,0,1,.54,1.27,9.09,9.09,0,0,1,.18,2,7.79,7.79,0,0,1-.31,2.44,3,3,0,0,1-.92,1.44,2.41,2.41,0,0,1-1.56.5,2.37,2.37,0,0,1-2-.9A5.63,5.63,0,0,1,33.05,141.09Zm1.08,0a5.26,5.26,0,0,0,.5,2.81,1.4,1.4,0,0,0,2.44,0,8.15,8.15,0,0,0,0-5.62,1.47,1.47,0,0,0-1.24-.71,1.39,1.39,0,0,0-1.16.61A5.52,5.52,0,0,0,34.13,141.09Z"/><path d="M27.67,87.63a2.22,2.22,0,0,1-1-.69,1.81,1.81,0,0,1-.31-1.06,2.09,2.09,0,0,1,.67-1.58,2.85,2.85,0,0,1,3.61,0,2.13,2.13,0,0,1,.69,1.6,1.73,1.73,0,0,1-.32,1,2,2,0,0,1-1,.69,2.16,2.16,0,0,1,1.2.83,2.25,2.25,0,0,1,.41,1.37,2.45,2.45,0,0,1-.78,1.84,3.16,3.16,0,0,1-4.09,0A2.46,2.46,0,0,1,26,89.8a2.25,2.25,0,0,1,.43-1.41A2.15,2.15,0,0,1,27.67,87.63Zm-.21-1.8a1.35,1.35,0,0,0,.39,1,1.42,1.42,0,0,0,1,.39,1.39,1.39,0,0,0,1-.37,1.36,1.36,0,0,0,0-1.93,1.35,1.35,0,0,0-1-.4,1.4,1.4,0,0,0-1,.39A1.26,1.26,0,0,0,27.46,85.83Zm-.33,4a2,2,0,0,0,.2.87,1.57,1.57,0,0,0,.64.66,1.81,1.81,0,0,0,.91.23,1.67,1.67,0,0,0,1.23-.48,1.61,1.61,0,0,0,.5-1.23,1.77,1.77,0,0,0-3-1.27A1.66,1.66,0,0,0,27.13,89.8Zm5.92-1.75a7.77,7.77,0,0,1,.31-2.45,3.07,3.07,0,0,1,.92-1.44,2.46,2.46,0,0,1,1.57-.5,2.42,2.42,0,0,1,1.2.28,2.33,2.33,0,0,1,.87.81A4.23,4.23,0,0,1,38.46,86a9,9,0,0,1,.18,2,7.79,7.79,0,0,1-.31,2.44,3,3,0,0,1-.92,1.43,2.64,2.64,0,0,1-3.52-.39A5.65,5.65,0,0,1,33.05,88.05Zm1.08,0a5.26,5.26,0,0,0,.5,2.81,1.41,1.41,0,0,0,2.44,0,5.36,5.36,0,0,0,.5-2.81,5.29,5.29,0,0,0-.5-2.81,1.47,1.47,0,0,0-1.24-.71,1.39,1.39,0,0,0-1.16.61A5.5,5.5,0,0,0,34.13,88.05Z"/><path d="M73.23,317.45h-1v-6.72a6.14,6.14,0,0,1-1,.74,6.69,6.69,0,0,1-1.09.53v-1a6.63,6.63,0,0,0,1.53-1,4,4,0,0,0,1-1.15h.67Zm3.19-2,1-.1a1.78,1.78,0,0,0,.48,1.05,1.4,1.4,0,0,0,.94.31,1.55,1.55,0,0,0,.84-.22,1.81,1.81,0,0,0,.61-.59,3.26,3.26,0,0,0,.39-1,5.2,5.2,0,0,0,.16-1.3v-.22a2.53,2.53,0,0,1-.86.83,2.32,2.32,0,0,1-1.19.31,2.4,2.4,0,0,1-1.81-.76,2.86,2.86,0,0,1-.73-2,2.92,2.92,0,0,1,.76-2.11,2.61,2.61,0,0,1,1.94-.79,2.68,2.68,0,0,1,1.51.45,2.77,2.77,0,0,1,1.07,1.3,6.24,6.24,0,0,1,.36,2.4,7.85,7.85,0,0,1-.36,2.63,3,3,0,0,1-1.07,1.48,2.75,2.75,0,0,1-1.64.5,2.42,2.42,0,0,1-1.65-.55A2.36,2.36,0,0,1,76.42,315.47Zm4.31-3.8a2.07,2.07,0,0,0-.48-1.44,1.5,1.5,0,0,0-1.16-.53,1.6,1.6,0,0,0-1.23.58,2.12,2.12,0,0,0-.52,1.48,1.84,1.84,0,0,0,.5,1.33,1.66,1.66,0,0,0,1.22.52,1.59,1.59,0,0,0,1.21-.52A2,2,0,0,0,80.73,311.67Zm2.54,3.53,1.1-.09a2.12,2.12,0,0,0,.57,1.22,1.56,1.56,0,0,0,1.09.4,1.66,1.66,0,0,0,1.28-.58,2.11,2.11,0,0,0,.53-1.51,1.91,1.91,0,0,0-.51-1.42,1.74,1.74,0,0,0-1.33-.54,1.88,1.88,0,0,0-1.56.83l-1-.12.83-4.41h4.28v1H85.12l-.45,2.31a2.76,2.76,0,0,1,1.61-.54,2.54,2.54,0,0,1,1.89.78,2.72,2.72,0,0,1,.78,2,3.17,3.17,0,0,1-.67,2,2.72,2.72,0,0,1-2.25,1,2.8,2.8,0,0,1-1.92-.66A2.54,2.54,0,0,1,83.27,315.2Zm7-2a7.84,7.84,0,0,1,.31-2.46,3,3,0,0,1,.92-1.43,2.39,2.39,0,0,1,1.56-.5,2.49,2.49,0,0,1,1.21.28,2.24,2.24,0,0,1,.87.81,3.83,3.83,0,0,1,.53,1.26,8.49,8.49,0,0,1,.19,2,8,8,0,0,1-.31,2.43,3,3,0,0,1-.93,1.44,2.62,2.62,0,0,1-3.51-.39A5.67,5.67,0,0,1,90.27,313.22Zm1.07,0a5.38,5.38,0,0,0,.5,2.81,1.47,1.47,0,0,0,1.22.7,1.43,1.43,0,0,0,1.22-.7,8.17,8.17,0,0,0,0-5.63,1.43,1.43,0,0,0-1.23-.7,1.35,1.35,0,0,0-1.16.61A5.48,5.48,0,0,0,91.34,313.22Z"/><path d="M147.66,317.45h-1v-6.72a6.14,6.14,0,0,1-1,.74,6.69,6.69,0,0,1-1.09.53v-1a6.63,6.63,0,0,0,1.53-1,3.8,3.8,0,0,0,1-1.15h.67Zm3.19-2,1-.1a1.78,1.78,0,0,0,.48,1.05,1.4,1.4,0,0,0,.94.31,1.55,1.55,0,0,0,.84-.22,1.81,1.81,0,0,0,.61-.59,3.26,3.26,0,0,0,.39-1,5.2,5.2,0,0,0,.16-1.3v-.22a2.53,2.53,0,0,1-.86.83,2.32,2.32,0,0,1-1.19.31,2.4,2.4,0,0,1-1.81-.76,2.86,2.86,0,0,1-.73-2,2.92,2.92,0,0,1,.76-2.11,2.61,2.61,0,0,1,1.94-.79,2.68,2.68,0,0,1,1.51.45,2.77,2.77,0,0,1,1.07,1.3,6.24,6.24,0,0,1,.36,2.4,7.85,7.85,0,0,1-.36,2.63,3,3,0,0,1-1.07,1.48,2.75,2.75,0,0,1-1.64.5,2.26,2.26,0,0,1-2.42-2.12Zm4.31-3.8a2.07,2.07,0,0,0-.48-1.44,1.5,1.5,0,0,0-1.16-.53,1.62,1.62,0,0,0-1.23.58,2.12,2.12,0,0,0-.52,1.48,1.84,1.84,0,0,0,.5,1.33,1.66,1.66,0,0,0,1.22.52,1.59,1.59,0,0,0,1.21-.52A2,2,0,0,0,155.16,311.67Zm8-.7-1,.07a2.24,2.24,0,0,0-.39-.9,1.44,1.44,0,0,0-1.07-.46,1.48,1.48,0,0,0-.89.29A2.68,2.68,0,0,0,159,311a5.81,5.81,0,0,0-.29,2,2.43,2.43,0,0,1,.92-.86,2.65,2.65,0,0,1,1.17-.28,2.35,2.35,0,0,1,1.78.78,2.77,2.77,0,0,1,.75,2,3.3,3.3,0,0,1-.36,1.52,2.58,2.58,0,0,1-1,1.06,2.85,2.85,0,0,1-3.53-.61,4.9,4.9,0,0,1-.83-3.19,5.74,5.74,0,0,1,.92-3.62,2.61,2.61,0,0,1,2.16-1,2.38,2.38,0,0,1,1.65.57A2.35,2.35,0,0,1,163.16,311Zm-4.29,3.7a2.57,2.57,0,0,0,.22,1.05,1.81,1.81,0,0,0,.64.75,1.7,1.7,0,0,0,.89.26,1.5,1.5,0,0,0,1.14-.53,2.13,2.13,0,0,0,.48-1.47,2,2,0,0,0-.48-1.4,1.52,1.52,0,0,0-1.19-.52,1.63,1.63,0,0,0-1.22.52A1.88,1.88,0,0,0,158.87,314.67Zm5.83-1.45a7.84,7.84,0,0,1,.31-2.46,3,3,0,0,1,.92-1.43,2.39,2.39,0,0,1,1.56-.5,2.49,2.49,0,0,1,1.21.28,2.24,2.24,0,0,1,.87.81,3.83,3.83,0,0,1,.53,1.26,8.49,8.49,0,0,1,.19,2,7.68,7.68,0,0,1-.31,2.43,3,3,0,0,1-.92,1.44,2.42,2.42,0,0,1-1.57.5,2.39,2.39,0,0,1-2-.89A5.67,5.67,0,0,1,164.7,313.22Zm1.07,0a5.38,5.38,0,0,0,.5,2.81,1.47,1.47,0,0,0,1.22.7,1.43,1.43,0,0,0,1.22-.7,8.17,8.17,0,0,0,0-5.63,1.43,1.43,0,0,0-1.23-.7,1.35,1.35,0,0,0-1.16.61A5.48,5.48,0,0,0,165.77,313.22Z"/><path d="M222.1,317.45h-1v-6.72a6.14,6.14,0,0,1-1,.74,6.69,6.69,0,0,1-1.09.53v-1a6.63,6.63,0,0,0,1.53-1,3.8,3.8,0,0,0,.95-1.15h.68Zm3.18-2,1-.1a1.78,1.78,0,0,0,.48,1.05,1.42,1.42,0,0,0,.94.31,1.55,1.55,0,0,0,.84-.22,1.81,1.81,0,0,0,.61-.59,3.26,3.26,0,0,0,.39-1,5.2,5.2,0,0,0,.16-1.3v-.22a2.45,2.45,0,0,1-.86.83,2.32,2.32,0,0,1-1.19.31,2.4,2.4,0,0,1-1.81-.76,2.86,2.86,0,0,1-.73-2,2.92,2.92,0,0,1,.76-2.11,2.61,2.61,0,0,1,1.94-.79,2.73,2.73,0,0,1,1.52.45,2.81,2.81,0,0,1,1.06,1.3,6.24,6.24,0,0,1,.36,2.4,7.85,7.85,0,0,1-.36,2.63,3.05,3.05,0,0,1-1.06,1.48,2.8,2.8,0,0,1-1.65.5,2.44,2.44,0,0,1-1.65-.55A2.41,2.41,0,0,1,225.28,315.47Zm4.32-3.8a2.07,2.07,0,0,0-.49-1.44,1.5,1.5,0,0,0-1.16-.53,1.62,1.62,0,0,0-1.23.58,2.12,2.12,0,0,0-.52,1.48,1.84,1.84,0,0,0,.5,1.33,1.66,1.66,0,0,0,1.22.52,1.59,1.59,0,0,0,1.21-.52A2,2,0,0,0,229.6,311.67Zm2.59-1.69v-1h5.56v.82a12.33,12.33,0,0,0-1.62,2.33,14.16,14.16,0,0,0-1.24,3,10.11,10.11,0,0,0-.4,2.36h-1.1a10.57,10.57,0,0,1,.39-2.45,13.44,13.44,0,0,1,1.1-2.77,12.61,12.61,0,0,1,1.53-2.25Zm6.94,3.24a7.84,7.84,0,0,1,.31-2.46,3,3,0,0,1,.92-1.43,2.39,2.39,0,0,1,1.56-.5,2.49,2.49,0,0,1,1.21.28,2.24,2.24,0,0,1,.87.81,3.83,3.83,0,0,1,.53,1.26,8.49,8.49,0,0,1,.19,2,7.68,7.68,0,0,1-.31,2.43,3,3,0,0,1-.92,1.44,2.42,2.42,0,0,1-1.57.5,2.39,2.39,0,0,1-1.95-.89A5.67,5.67,0,0,1,239.13,313.22Zm1.07,0a5.38,5.38,0,0,0,.5,2.81,1.47,1.47,0,0,0,1.22.7,1.43,1.43,0,0,0,1.22-.7,8.17,8.17,0,0,0,0-5.63,1.43,1.43,0,0,0-1.23-.7,1.35,1.35,0,0,0-1.16.61A5.48,5.48,0,0,0,240.2,313.22Z"/><path d="M296.53,317.45h-1v-6.72a6.14,6.14,0,0,1-1,.74,6.69,6.69,0,0,1-1.09.53v-1a6.63,6.63,0,0,0,1.53-1,3.8,3.8,0,0,0,1-1.15h.68Zm3.18-2,1-.1a1.78,1.78,0,0,0,.48,1.05,1.42,1.42,0,0,0,.94.31,1.55,1.55,0,0,0,.84-.22,1.81,1.81,0,0,0,.61-.59,3.26,3.26,0,0,0,.39-1,5.2,5.2,0,0,0,.16-1.3v-.22a2.45,2.45,0,0,1-.86.83,2.32,2.32,0,0,1-1.19.31,2.42,2.42,0,0,1-1.81-.76,2.86,2.86,0,0,1-.73-2,2.92,2.92,0,0,1,.76-2.11,2.61,2.61,0,0,1,1.94-.79,2.73,2.73,0,0,1,1.52.45,2.81,2.81,0,0,1,1.06,1.3,6.24,6.24,0,0,1,.36,2.4,7.85,7.85,0,0,1-.36,2.63,3.05,3.05,0,0,1-1.06,1.48,2.79,2.79,0,0,1-1.64.5,2.45,2.45,0,0,1-1.66-.55A2.41,2.41,0,0,1,299.71,315.47Zm4.32-3.8a2.07,2.07,0,0,0-.49-1.44,1.49,1.49,0,0,0-1.15-.53,1.62,1.62,0,0,0-1.24.58,2.11,2.11,0,0,0-.51,1.48,1.8,1.8,0,0,0,.5,1.33,1.63,1.63,0,0,0,1.21.52,1.59,1.59,0,0,0,1.21-.52A2,2,0,0,0,304,311.67Zm4.15,1.12a2.08,2.08,0,0,1-1-.68,1.84,1.84,0,0,1-.31-1.07,2.06,2.06,0,0,1,.67-1.57,2.85,2.85,0,0,1,3.61,0,2.15,2.15,0,0,1,.68,1.6,1.74,1.74,0,0,1-.31,1,2,2,0,0,1-1,.68,2.27,2.27,0,0,1,1.2.83,2.37,2.37,0,0,1,.41,1.38,2.45,2.45,0,0,1-.78,1.84,2.81,2.81,0,0,1-2.05.75,2.84,2.84,0,0,1-2.05-.75,2.48,2.48,0,0,1-.78-1.87,2.27,2.27,0,0,1,.42-1.41A2.19,2.19,0,0,1,308.18,312.79ZM308,311a1.36,1.36,0,0,0,.39,1,1.44,1.44,0,0,0,1,.39,1.41,1.41,0,0,0,1-.38,1.35,1.35,0,0,0,0-1.92,1.36,1.36,0,0,0-1-.41,1.38,1.38,0,0,0-1,.4A1.25,1.25,0,0,0,308,311Zm-.32,4a1.91,1.91,0,0,0,.2.87,1.57,1.57,0,0,0,.64.66,1.89,1.89,0,0,0,.91.23,1.68,1.68,0,0,0,1.73-1.72,1.71,1.71,0,0,0-1.77-1.76,1.61,1.61,0,0,0-1.23.5A1.66,1.66,0,0,0,307.64,315Zm5.92-1.75a7.84,7.84,0,0,1,.31-2.46,3.09,3.09,0,0,1,.92-1.43,2.39,2.39,0,0,1,1.56-.5,2.49,2.49,0,0,1,1.21.28,2.24,2.24,0,0,1,.87.81,3.83,3.83,0,0,1,.53,1.26,8.49,8.49,0,0,1,.19,2,7.68,7.68,0,0,1-.31,2.43,3,3,0,0,1-.92,1.44,2.42,2.42,0,0,1-1.57.5,2.39,2.39,0,0,1-2-.89A5.67,5.67,0,0,1,313.56,313.22Zm1.08,0a5.28,5.28,0,0,0,.5,2.81,1.4,1.4,0,0,0,2.43,0,8.17,8.17,0,0,0,0-5.63,1.43,1.43,0,0,0-1.23-.7,1.35,1.35,0,0,0-1.16.61A5.5,5.5,0,0,0,314.64,313.22Z"/><path d="M371,317.45h-1v-6.72a6.14,6.14,0,0,1-1,.74,6.69,6.69,0,0,1-1.09.53v-1a6.63,6.63,0,0,0,1.53-1,3.8,3.8,0,0,0,.95-1.15H371Zm3.18-2,1-.1a1.78,1.78,0,0,0,.48,1.05,1.42,1.42,0,0,0,.94.31,1.53,1.53,0,0,0,.84-.22,1.81,1.81,0,0,0,.61-.59,3.26,3.26,0,0,0,.39-1,5.2,5.2,0,0,0,.16-1.3v-.22a2.45,2.45,0,0,1-.86.83,2.32,2.32,0,0,1-1.19.31,2.42,2.42,0,0,1-1.81-.76,2.86,2.86,0,0,1-.73-2,2.92,2.92,0,0,1,.76-2.11,2.61,2.61,0,0,1,1.94-.79,2.73,2.73,0,0,1,1.52.45,2.81,2.81,0,0,1,1.06,1.3,6.24,6.24,0,0,1,.36,2.4,7.85,7.85,0,0,1-.36,2.63,3,3,0,0,1-1.06,1.48,2.79,2.79,0,0,1-1.64.5,2.45,2.45,0,0,1-1.66-.55A2.41,2.41,0,0,1,374.14,315.47Zm4.32-3.8a2.07,2.07,0,0,0-.49-1.44,1.49,1.49,0,0,0-1.15-.53,1.64,1.64,0,0,0-1.24.58,2.11,2.11,0,0,0-.51,1.48,1.8,1.8,0,0,0,.5,1.33,1.64,1.64,0,0,0,1.21.52,1.59,1.59,0,0,0,1.21-.52A2,2,0,0,0,378.46,311.67Zm2.68,3.8,1-.1a1.78,1.78,0,0,0,.48,1.05,1.42,1.42,0,0,0,.94.31,1.53,1.53,0,0,0,.84-.22,1.81,1.81,0,0,0,.61-.59,3.26,3.26,0,0,0,.39-1,5.2,5.2,0,0,0,.16-1.3v-.22a2.45,2.45,0,0,1-.86.83,2.32,2.32,0,0,1-1.19.31,2.42,2.42,0,0,1-1.81-.76,2.86,2.86,0,0,1-.73-2,2.92,2.92,0,0,1,.76-2.11,2.61,2.61,0,0,1,1.94-.79,2.73,2.73,0,0,1,1.52.45,2.81,2.81,0,0,1,1.06,1.3,6.24,6.24,0,0,1,.36,2.4,7.85,7.85,0,0,1-.36,2.63,3,3,0,0,1-1.06,1.48,2.79,2.79,0,0,1-1.64.5,2.45,2.45,0,0,1-1.66-.55A2.41,2.41,0,0,1,381.14,315.47Zm4.32-3.8a2.07,2.07,0,0,0-.49-1.44,1.49,1.49,0,0,0-1.15-.53,1.64,1.64,0,0,0-1.24.58,2.11,2.11,0,0,0-.51,1.48,1.8,1.8,0,0,0,.5,1.33,1.64,1.64,0,0,0,1.21.52,1.59,1.59,0,0,0,1.21-.52A2,2,0,0,0,385.46,311.67Zm2.53,1.55a7.84,7.84,0,0,1,.31-2.46,3.09,3.09,0,0,1,.92-1.43,2.39,2.39,0,0,1,1.56-.5,2.49,2.49,0,0,1,1.21.28,2.24,2.24,0,0,1,.87.81,3.83,3.83,0,0,1,.53,1.26,8.49,8.49,0,0,1,.19,2,7.68,7.68,0,0,1-.31,2.43,3,3,0,0,1-.92,1.44,2.42,2.42,0,0,1-1.57.5,2.39,2.39,0,0,1-1.95-.89A5.67,5.67,0,0,1,388,313.22Zm1.08,0a5.28,5.28,0,0,0,.5,2.81,1.45,1.45,0,0,0,1.21.7A1.43,1.43,0,0,0,392,316a8.17,8.17,0,0,0,0-5.63,1.43,1.43,0,0,0-1.23-.7,1.35,1.35,0,0,0-1.16.61A5.5,5.5,0,0,0,389.07,313.22Z"/><path d="M447,316.43v1h-5.68a2.28,2.28,0,0,1,.12-.73,4,4,0,0,1,.69-1.14,10.77,10.77,0,0,1,1.39-1.3,11.08,11.08,0,0,0,1.89-1.83,2.19,2.19,0,0,0,.5-1.27,1.37,1.37,0,0,0-.45-1,1.62,1.62,0,0,0-1.17-.44,1.65,1.65,0,0,0-1.22.45,1.8,1.8,0,0,0-.47,1.27l-1.08-.11a2.61,2.61,0,0,1,.83-1.84,2.87,2.87,0,0,1,2-.64,2.7,2.7,0,0,1,2,.68,2.27,2.27,0,0,1,.72,1.71,2.42,2.42,0,0,1-.22,1,4,4,0,0,1-.7,1,19.26,19.26,0,0,1-1.61,1.5c-.64.53-1.05.89-1.24,1.09a4,4,0,0,0-.43.56Zm1.46-3.21a7.84,7.84,0,0,1,.31-2.46,3.09,3.09,0,0,1,.92-1.43,2.39,2.39,0,0,1,1.56-.5,2.49,2.49,0,0,1,1.21.28,2.24,2.24,0,0,1,.87.81,3.83,3.83,0,0,1,.53,1.26,8.49,8.49,0,0,1,.19,2,7.68,7.68,0,0,1-.31,2.43,3,3,0,0,1-.92,1.44,2.42,2.42,0,0,1-1.57.5,2.39,2.39,0,0,1-1.95-.89A5.67,5.67,0,0,1,448.42,313.22Zm1.08,0A5.28,5.28,0,0,0,450,316a1.45,1.45,0,0,0,1.21.7,1.43,1.43,0,0,0,1.22-.7,8.17,8.17,0,0,0,0-5.63,1.43,1.43,0,0,0-1.23-.7,1.35,1.35,0,0,0-1.16.61A5.5,5.5,0,0,0,449.5,313.22Zm5.92,0a7.84,7.84,0,0,1,.31-2.46,3.09,3.09,0,0,1,.92-1.43,2.39,2.39,0,0,1,1.56-.5,2.49,2.49,0,0,1,1.21.28,2.24,2.24,0,0,1,.87.81,3.83,3.83,0,0,1,.53,1.26,8.49,8.49,0,0,1,.19,2,7.68,7.68,0,0,1-.31,2.43,3,3,0,0,1-.92,1.44,2.42,2.42,0,0,1-1.57.5,2.39,2.39,0,0,1-1.95-.89A5.67,5.67,0,0,1,455.42,313.22Zm1.08,0A5.28,5.28,0,0,0,457,316a1.45,1.45,0,0,0,1.21.7,1.43,1.43,0,0,0,1.22-.7,8.17,8.17,0,0,0,0-5.63,1.43,1.43,0,0,0-1.23-.7,1.35,1.35,0,0,0-1.16.61A5.5,5.5,0,0,0,456.5,313.22Zm5.92,0a7.84,7.84,0,0,1,.31-2.46,3.09,3.09,0,0,1,.92-1.43,2.39,2.39,0,0,1,1.56-.5,2.49,2.49,0,0,1,1.21.28,2.24,2.24,0,0,1,.87.81,3.83,3.83,0,0,1,.53,1.26,8.49,8.49,0,0,1,.19,2,7.68,7.68,0,0,1-.31,2.43,3,3,0,0,1-.92,1.44,2.42,2.42,0,0,1-1.57.5,2.39,2.39,0,0,1-1.95-.89A5.67,5.67,0,0,1,462.42,313.22Zm1.08,0A5.28,5.28,0,0,0,464,316a1.45,1.45,0,0,0,1.21.7,1.43,1.43,0,0,0,1.22-.7,8.17,8.17,0,0,0,0-5.63,1.43,1.43,0,0,0-1.23-.7,1.35,1.35,0,0,0-1.16.61A5.5,5.5,0,0,0,463.5,313.22Z"/><path d="M521.4,316.43v1h-5.69a2.28,2.28,0,0,1,.12-.73,4,4,0,0,1,.69-1.14,10.77,10.77,0,0,1,1.39-1.3,11.08,11.08,0,0,0,1.89-1.83,2.12,2.12,0,0,0,.5-1.27,1.37,1.37,0,0,0-.45-1,1.62,1.62,0,0,0-1.17-.44,1.65,1.65,0,0,0-1.22.45,1.8,1.8,0,0,0-.47,1.27l-1.08-.11a2.61,2.61,0,0,1,.83-1.84,2.88,2.88,0,0,1,2-.64,2.7,2.7,0,0,1,1.95.68,2.27,2.27,0,0,1,.72,1.71,2.42,2.42,0,0,1-.22,1,4,4,0,0,1-.7,1,17.76,17.76,0,0,1-1.61,1.5c-.64.53-1.05.89-1.24,1.09a4,4,0,0,0-.43.56Zm1.45-3.21a7.84,7.84,0,0,1,.31-2.46,3.09,3.09,0,0,1,.92-1.43,2.4,2.4,0,0,1,1.57-.5,2.47,2.47,0,0,1,1.2.28,2.24,2.24,0,0,1,.87.81,3.83,3.83,0,0,1,.53,1.26,8.49,8.49,0,0,1,.19,2,7.68,7.68,0,0,1-.31,2.43,3,3,0,0,1-.92,1.44,2.64,2.64,0,0,1-3.52-.39A5.67,5.67,0,0,1,522.85,313.22Zm1.08,0a5.28,5.28,0,0,0,.5,2.81,1.45,1.45,0,0,0,1.22.7,1.41,1.41,0,0,0,1.21-.7,8.17,8.17,0,0,0,0-5.63,1.43,1.43,0,0,0-1.23-.7,1.37,1.37,0,0,0-1.16.61A5.5,5.5,0,0,0,523.93,313.22Zm9.89,4.23h-1.05v-6.72a6.14,6.14,0,0,1-1,.74,6.69,6.69,0,0,1-1.09.53v-1a6.63,6.63,0,0,0,1.53-1,4,4,0,0,0,1-1.15h.67Zm3-4.23a7.84,7.84,0,0,1,.31-2.46,3.09,3.09,0,0,1,.92-1.43,2.4,2.4,0,0,1,1.57-.5,2.47,2.47,0,0,1,1.2.28,2.24,2.24,0,0,1,.87.81,3.83,3.83,0,0,1,.53,1.26,8.49,8.49,0,0,1,.19,2,7.68,7.68,0,0,1-.31,2.43,3,3,0,0,1-.92,1.44,2.64,2.64,0,0,1-3.52-.39A5.67,5.67,0,0,1,536.85,313.22Zm1.08,0a5.28,5.28,0,0,0,.5,2.81,1.45,1.45,0,0,0,1.22.7,1.41,1.41,0,0,0,1.21-.7,8.17,8.17,0,0,0,0-5.63,1.43,1.43,0,0,0-1.23-.7,1.37,1.37,0,0,0-1.16.61A5.5,5.5,0,0,0,537.93,313.22Z"/><path class="cls-11" d="M98,61.92h12"/><path class="cls-12" d="M122.86,65.15a4,4,0,0,1-1.14.7,3.15,3.15,0,0,1-1.16.21,2.3,2.3,0,0,1-1.58-.5,1.68,1.68,0,0,1-.54-1.28,1.76,1.76,0,0,1,.2-.83,1.55,1.55,0,0,1,.55-.61,2.51,2.51,0,0,1,.76-.35,7.2,7.2,0,0,1,.94-.17,8.54,8.54,0,0,0,1.88-.36V61.7a1.17,1.17,0,0,0-.3-.92,1.81,1.81,0,0,0-1.2-.35,1.84,1.84,0,0,0-1.1.27,1.54,1.54,0,0,0-.53.9l-1-.14a2.47,2.47,0,0,1,.47-1.06,2,2,0,0,1,.94-.62,4,4,0,0,1,1.4-.22,3.91,3.91,0,0,1,1.3.18,1.81,1.81,0,0,1,.73.47,1.6,1.6,0,0,1,.33.72,6.67,6.67,0,0,1,0,1v1.41a16.75,16.75,0,0,0,.06,1.86,2.62,2.62,0,0,0,.28.75h-1.11A2.48,2.48,0,0,1,122.86,65.15Zm-.09-2.36a8.2,8.2,0,0,1-1.72.41,3.31,3.31,0,0,0-.93.22,1,1,0,0,0-.42.32,1,1,0,0,0-.14.5.91.91,0,0,0,.32.71,1.36,1.36,0,0,0,.93.28,2.11,2.11,0,0,0,1.08-.27,1.55,1.55,0,0,0,.7-.73,2.42,2.42,0,0,0,.18-1.05ZM128.09,65l.16.92a4.16,4.16,0,0,1-.8.09,1.83,1.83,0,0,1-.89-.17,1,1,0,0,1-.45-.48,4,4,0,0,1-.13-1.25V60.51h-.76V59.7H126V58.15l1-.62V59.7h1.06v.81H127v3.64a2.15,2.15,0,0,0,0,.58.46.46,0,0,0,.19.2.67.67,0,0,0,.35.08Zm.71.94V59.7h.93v.87a2.25,2.25,0,0,1,1.89-1,2,2,0,0,1,1.13.28,1.48,1.48,0,0,1,.63.8,2.26,2.26,0,0,1,1.92-1.08,1.87,1.87,0,0,1,1.42.51,2.19,2.19,0,0,1,.5,1.58v4.27h-1.05V62a2.53,2.53,0,0,0-.11-.9.8.8,0,0,0-.36-.45,1.1,1.1,0,0,0-.64-.18,1.48,1.48,0,0,0-1.09.44,2,2,0,0,0-.42,1.41v3.61h-1.07V61.87a1.69,1.69,0,0,0-.26-1,.94.94,0,0,0-.83-.36,1.52,1.52,0,0,0-.83.24,1.26,1.26,0,0,0-.54.69,3.61,3.61,0,0,0-.18,1.29v3.24Zm9.61-3.11a3.22,3.22,0,0,1,1-2.57,2.91,2.91,0,0,1,1.95-.68,2.8,2.8,0,0,1,2.1.84,3.12,3.12,0,0,1,.82,2.31,4.22,4.22,0,0,1-.35,1.89,2.59,2.59,0,0,1-1.07,1.08,3.1,3.1,0,0,1-1.5.38,2.84,2.84,0,0,1-2.11-.83A3.39,3.39,0,0,1,138.41,62.81Zm1.07,0a2.68,2.68,0,0,0,.52,1.78,1.7,1.7,0,0,0,1.31.59,1.67,1.67,0,0,0,1.31-.59,2.68,2.68,0,0,0,.52-1.81,2.56,2.56,0,0,0-.53-1.75,1.64,1.64,0,0,0-1.3-.6A1.67,1.67,0,0,0,140,61,2.63,2.63,0,0,0,139.48,62.81Zm5.9,1.25,1-.16a1.43,1.43,0,0,0,.48.95,1.76,1.76,0,0,0,1.14.33,1.64,1.64,0,0,0,1.06-.28.89.89,0,0,0,.36-.7.62.62,0,0,0-.31-.56,4.09,4.09,0,0,0-1.08-.36,13.06,13.06,0,0,1-1.61-.5,1.7,1.7,0,0,1-.67-.6,1.52,1.52,0,0,1-.23-.84,1.71,1.71,0,0,1,.18-.77,1.73,1.73,0,0,1,.52-.59,2.48,2.48,0,0,1,.67-.3,3.69,3.69,0,0,1,2.19.1,1.72,1.72,0,0,1,.83.56,2.36,2.36,0,0,1,.36.95l-1,.14a1.1,1.1,0,0,0-.41-.73,1.42,1.42,0,0,0-1-.28,1.62,1.62,0,0,0-1,.25.68.68,0,0,0-.32.56.55.55,0,0,0,.13.36,1,1,0,0,0,.4.28l.94.27a11.61,11.61,0,0,1,1.56.5,1.5,1.5,0,0,1,.69.54,1.53,1.53,0,0,1,.25.91,1.76,1.76,0,0,1-.31,1,2.06,2.06,0,0,1-.88.72,3.36,3.36,0,0,1-1.31.25,3,3,0,0,1-1.86-.5A2.43,2.43,0,0,1,145.38,64.06Zm6.42,4.25V59.7h.95v.79a2.41,2.41,0,0,1,.77-.7,2.25,2.25,0,0,1,1-.23A2.5,2.5,0,0,1,156,60a2.41,2.41,0,0,1,.91,1.16,4.39,4.39,0,0,1,.31,1.64,4.13,4.13,0,0,1-.35,1.72,2.47,2.47,0,0,1-1,1.17,2.61,2.61,0,0,1-1.38.41,2.11,2.11,0,0,1-.95-.22,2.6,2.6,0,0,1-.69-.56v3Zm.95-5.47a2.76,2.76,0,0,0,.48,1.78,1.52,1.52,0,0,0,2.38,0,2.86,2.86,0,0,0,.5-1.85,2.64,2.64,0,0,0-.49-1.76,1.44,1.44,0,0,0-1.17-.59,1.49,1.49,0,0,0-1.18.62A2.79,2.79,0,0,0,152.75,62.84Zm6.05,3.08v-8.6h1V60.4a2.36,2.36,0,0,1,1.86-.84,2.43,2.43,0,0,1,1.21.28,1.6,1.6,0,0,1,.73.75,3.32,3.32,0,0,1,.22,1.39v3.94h-1.05V62a1.64,1.64,0,0,0-.34-1.16,1.28,1.28,0,0,0-1-.36,1.79,1.79,0,0,0-.89.25,1.4,1.4,0,0,0-.59.66,2.89,2.89,0,0,0-.18,1.14v3.41Zm11.25-2,1.09.12a2.65,2.65,0,0,1-.95,1.49,2.91,2.91,0,0,1-1.78.53,2.88,2.88,0,0,1-2.18-.85,3.3,3.3,0,0,1-.79-2.36,3.4,3.4,0,0,1,.81-2.42,2.73,2.73,0,0,1,2.09-.87,2.67,2.67,0,0,1,2,.84,3.35,3.35,0,0,1,.79,2.39v.28h-4.64a2.44,2.44,0,0,0,.58,1.58,1.71,1.71,0,0,0,1.3.53,1.67,1.67,0,0,0,1-.29A2.09,2.09,0,0,0,170.05,63.92Zm-3.46-1.71h3.47a2,2,0,0,0-.39-1.18,1.63,1.63,0,0,0-1.31-.61,1.74,1.74,0,0,0-1.24.48A1.94,1.94,0,0,0,166.59,62.21Zm6.19,3.71V59.7h.95v.94a2.44,2.44,0,0,1,.66-.86,1.16,1.16,0,0,1,.69-.22,2.11,2.11,0,0,1,1.08.33l-.36,1a1.46,1.46,0,0,0-.77-.23,1,1,0,0,0-.64.21,1.07,1.07,0,0,0-.37.58,3.71,3.71,0,0,0-.19,1.22v3.27Zm4-7.38V57.32h1.06v1.22Zm0,7.38V59.7h1.06v6.22Zm7.06-2.28,1,.14a2.74,2.74,0,0,1-.87,1.67,2.58,2.58,0,0,1-1.72.61,2.73,2.73,0,0,1-2.07-.83,3.47,3.47,0,0,1-.76-2.41,4.34,4.34,0,0,1,.33-1.75,2.36,2.36,0,0,1,1-1.14,3.09,3.09,0,0,1,1.5-.37,2.53,2.53,0,0,1,1.64.51,2.35,2.35,0,0,1,.85,1.46l-1,.15a1.72,1.72,0,0,0-.52-.94,1.37,1.37,0,0,0-.91-.32,1.63,1.63,0,0,0-1.29.57,2.65,2.65,0,0,0-.5,1.8,2.81,2.81,0,0,0,.48,1.83,1.58,1.58,0,0,0,1.25.56,1.45,1.45,0,0,0,1-.37A1.9,1.9,0,0,0,183.86,63.64Z"/><path class="cls-13" d="M201,61.92h12"/><path class="cls-12" d="M225.88,65.92V65a2.31,2.31,0,0,1-2,1.07,2.56,2.56,0,0,1-1-.21,1.71,1.71,0,0,1-.7-.53,2,2,0,0,1-.33-.79,5.68,5.68,0,0,1-.06-1V59.7h1.06v3.45a6.71,6.71,0,0,0,.06,1.11,1.15,1.15,0,0,0,.41.66,1.41,1.41,0,0,0,.81.23,1.77,1.77,0,0,0,.87-.23,1.36,1.36,0,0,0,.6-.68,3.15,3.15,0,0,0,.19-1.21V59.7h1v6.22Zm2.92,0V59.7h.93v.87a2.27,2.27,0,0,1,2-1,2.49,2.49,0,0,1,1,.2,1.7,1.7,0,0,1,.72.53,2.33,2.33,0,0,1,.33.77,8.22,8.22,0,0,1,0,1v3.83h-1V62.14a2.62,2.62,0,0,0-.13-1,1,1,0,0,0-.44-.5,1.26,1.26,0,0,0-.73-.21,1.72,1.72,0,0,0-1.17.44,2.1,2.1,0,0,0-.49,1.61v3.41Zm11,0v-.78a2,2,0,0,1-1.74.92,2.47,2.47,0,0,1-1.37-.41,2.77,2.77,0,0,1-1-1.16,3.88,3.88,0,0,1-.34-1.68,4.39,4.39,0,0,1,.31-1.69,2.38,2.38,0,0,1,.94-1.16,2.48,2.48,0,0,1,1.39-.4,2.17,2.17,0,0,1,1,.23,2.25,2.25,0,0,1,.72.61V57.32h1v8.6Zm-3.33-3.11a2.73,2.73,0,0,0,.5,1.79,1.51,1.51,0,0,0,2.36,0,2.61,2.61,0,0,0,.48-1.72,2.83,2.83,0,0,0-.5-1.87,1.48,1.48,0,0,0-1.2-.6A1.43,1.43,0,0,0,237,61,2.81,2.81,0,0,0,236.5,62.81Zm10.55,1.11,1.09.12a2.65,2.65,0,0,1-.95,1.49,2.91,2.91,0,0,1-1.78.53,2.88,2.88,0,0,1-2.18-.85,3.3,3.3,0,0,1-.79-2.36,3.4,3.4,0,0,1,.81-2.42,2.73,2.73,0,0,1,2.09-.87,2.67,2.67,0,0,1,2,.84,3.35,3.35,0,0,1,.79,2.39v.28h-4.64a2.44,2.44,0,0,0,.58,1.58,1.71,1.71,0,0,0,1.3.53,1.67,1.67,0,0,0,1-.29A2.09,2.09,0,0,0,247.05,63.92Zm-3.46-1.71h3.47a2,2,0,0,0-.39-1.18,1.63,1.63,0,0,0-1.31-.61,1.74,1.74,0,0,0-1.24.48A1.94,1.94,0,0,0,243.59,62.21Zm6.19,3.71V59.7h.95v.94a2.44,2.44,0,0,1,.66-.86,1.16,1.16,0,0,1,.69-.22,2.11,2.11,0,0,1,1.08.33l-.36,1a1.46,1.46,0,0,0-.77-.23,1,1,0,0,0-.64.21,1.07,1.07,0,0,0-.37.58,3.71,3.71,0,0,0-.19,1.22v3.27Zm3.81.51,1,.16a1.05,1.05,0,0,0,.36.69,1.79,1.79,0,0,0,1.07.29,1.87,1.87,0,0,0,1.12-.29,1.49,1.49,0,0,0,.55-.82,6,6,0,0,0,.08-1.36,2.14,2.14,0,0,1-1.72.82,2.35,2.35,0,0,1-2-.93,3.56,3.56,0,0,1-.7-2.21,4.17,4.17,0,0,1,.31-1.64,2.43,2.43,0,0,1,2.38-1.58,2.24,2.24,0,0,1,1.83.89V59.7h1v5.37a5.11,5.11,0,0,1-.3,2.07,2.16,2.16,0,0,1-.94,1,3.18,3.18,0,0,1-1.58.36,3,3,0,0,1-1.79-.5A1.73,1.73,0,0,1,253.59,66.43Zm.88-3.73a2.72,2.72,0,0,0,.48,1.78,1.61,1.61,0,0,0,2.44,0,2.61,2.61,0,0,0,.5-1.75,2.54,2.54,0,0,0-.51-1.72A1.56,1.56,0,0,0,255,61,2.56,2.56,0,0,0,254.47,62.7Zm6.31,3.22V59.7h1v.94a2.44,2.44,0,0,1,.66-.86,1.16,1.16,0,0,1,.69-.22,2.11,2.11,0,0,1,1.08.33l-.36,1a1.46,1.46,0,0,0-.77-.23,1,1,0,0,0-.64.21,1.07,1.07,0,0,0-.37.58,3.71,3.71,0,0,0-.19,1.22v3.27Zm3.63-3.11a3.22,3.22,0,0,1,.95-2.57,2.91,2.91,0,0,1,1.95-.68,2.8,2.8,0,0,1,2.1.84,3.12,3.12,0,0,1,.82,2.31,4.22,4.22,0,0,1-.35,1.89,2.59,2.59,0,0,1-1.07,1.08,3.1,3.1,0,0,1-1.5.38,2.84,2.84,0,0,1-2.11-.83A3.39,3.39,0,0,1,264.41,62.81Zm1.07,0a2.68,2.68,0,0,0,.52,1.78,1.7,1.7,0,0,0,1.31.59,1.67,1.67,0,0,0,1.31-.59,2.68,2.68,0,0,0,.52-1.81,2.56,2.56,0,0,0-.53-1.75,1.64,1.64,0,0,0-1.3-.6A1.67,1.67,0,0,0,266,61,2.63,2.63,0,0,0,265.48,62.81Zm10.4,3.11V65a2.31,2.31,0,0,1-2,1.07,2.56,2.56,0,0,1-1-.21,1.71,1.71,0,0,1-.7-.53,2,2,0,0,1-.33-.79,5.68,5.68,0,0,1-.06-1V59.7h1.06v3.45a6.71,6.71,0,0,0,.06,1.11,1.15,1.15,0,0,0,.41.66,1.41,1.41,0,0,0,.81.23,1.77,1.77,0,0,0,.87-.23,1.36,1.36,0,0,0,.6-.68,3.15,3.15,0,0,0,.19-1.21V59.7h1v6.22Zm2.92,0V59.7h.93v.87a2.27,2.27,0,0,1,2-1,2.49,2.49,0,0,1,1,.2,1.7,1.7,0,0,1,.72.53,2.33,2.33,0,0,1,.33.77,8.22,8.22,0,0,1,0,1v3.83h-1V62.14a2.62,2.62,0,0,0-.13-1,1,1,0,0,0-.44-.5,1.26,1.26,0,0,0-.73-.21,1.72,1.72,0,0,0-1.17.44,2.1,2.1,0,0,0-.49,1.61v3.41Zm11,0v-.78a2,2,0,0,1-1.74.92,2.47,2.47,0,0,1-1.37-.41,2.77,2.77,0,0,1-1-1.16,3.88,3.88,0,0,1-.34-1.68,4.39,4.39,0,0,1,.31-1.69,2.38,2.38,0,0,1,.94-1.16,2.48,2.48,0,0,1,1.39-.4,2.17,2.17,0,0,1,1,.23,2.25,2.25,0,0,1,.72.61V57.32h1v8.6Zm-3.33-3.11a2.73,2.73,0,0,0,.5,1.79,1.51,1.51,0,0,0,2.36,0,2.61,2.61,0,0,0,.48-1.72,2.83,2.83,0,0,0-.5-1.87,1.48,1.48,0,0,0-1.2-.6A1.43,1.43,0,0,0,287,61,2.81,2.81,0,0,0,286.5,62.81Z"/><path class="cls-14" d="M308,61.92h12"/><path class="cls-12" d="M332.86,65.15a4,4,0,0,1-1.14.7,3.15,3.15,0,0,1-1.16.21,2.3,2.3,0,0,1-1.58-.5,1.68,1.68,0,0,1-.54-1.28,1.76,1.76,0,0,1,.2-.83,1.55,1.55,0,0,1,.55-.61,2.51,2.51,0,0,1,.76-.35,7.2,7.2,0,0,1,.94-.17,8.54,8.54,0,0,0,1.88-.36V61.7a1.17,1.17,0,0,0-.3-.92,1.81,1.81,0,0,0-1.2-.35,1.84,1.84,0,0,0-1.1.27,1.54,1.54,0,0,0-.53.9l-1-.14a2.47,2.47,0,0,1,.47-1.06,2,2,0,0,1,.94-.62,4,4,0,0,1,1.4-.22,3.91,3.91,0,0,1,1.3.18,1.81,1.81,0,0,1,.73.47,1.6,1.6,0,0,1,.33.72,6.67,6.67,0,0,1,.05,1v1.41a16.75,16.75,0,0,0,.06,1.86,2.62,2.62,0,0,0,.28.75h-1.11A2.48,2.48,0,0,1,332.86,65.15Zm-.09-2.36a8.2,8.2,0,0,1-1.72.41,3.31,3.31,0,0,0-.93.22,1,1,0,0,0-.42.32,1,1,0,0,0-.14.5.91.91,0,0,0,.32.71,1.36,1.36,0,0,0,.93.28,2.11,2.11,0,0,0,1.08-.27,1.55,1.55,0,0,0,.7-.73,2.42,2.42,0,0,0,.18-1.05ZM338.09,65l.16.92a4.16,4.16,0,0,1-.8.09,1.83,1.83,0,0,1-.89-.17,1,1,0,0,1-.45-.48,4,4,0,0,1-.13-1.25V60.51h-.76V59.7H336V58.15l1-.62V59.7h1.06v.81H337v3.64a2.15,2.15,0,0,0,.05.58.46.46,0,0,0,.19.2.67.67,0,0,0,.35.08Zm.71.94V59.7h.93v.87a2.25,2.25,0,0,1,1.89-1,2,2,0,0,1,1.13.28,1.48,1.48,0,0,1,.63.8,2.26,2.26,0,0,1,1.92-1.08,1.87,1.87,0,0,1,1.42.51,2.19,2.19,0,0,1,.5,1.58v4.27h-1.05V62a2.53,2.53,0,0,0-.11-.9.8.8,0,0,0-.36-.45,1.1,1.1,0,0,0-.64-.18,1.48,1.48,0,0,0-1.09.44,2,2,0,0,0-.42,1.41v3.61h-1.07V61.87a1.69,1.69,0,0,0-.26-1,.94.94,0,0,0-.83-.36,1.52,1.52,0,0,0-.83.24,1.26,1.26,0,0,0-.54.69,3.61,3.61,0,0,0-.18,1.29v3.24Zm9.61-3.11a3.22,3.22,0,0,1,.95-2.57,2.91,2.91,0,0,1,1.95-.68,2.8,2.8,0,0,1,2.1.84,3.12,3.12,0,0,1,.82,2.31,4.22,4.22,0,0,1-.35,1.89,2.59,2.59,0,0,1-1.07,1.08,3.1,3.1,0,0,1-1.5.38,2.84,2.84,0,0,1-2.11-.83A3.39,3.39,0,0,1,348.41,62.81Zm1.07,0a2.68,2.68,0,0,0,.52,1.78,1.7,1.7,0,0,0,1.31.59,1.67,1.67,0,0,0,1.31-.59,2.68,2.68,0,0,0,.52-1.81,2.56,2.56,0,0,0-.53-1.75,1.64,1.64,0,0,0-1.3-.6A1.67,1.67,0,0,0,350,61,2.63,2.63,0,0,0,349.48,62.81Zm5.9,1.25,1-.16a1.43,1.43,0,0,0,.48.95,1.76,1.76,0,0,0,1.14.33,1.64,1.64,0,0,0,1.06-.28.89.89,0,0,0,.36-.7.62.62,0,0,0-.31-.56,4.09,4.09,0,0,0-1.08-.36,13.06,13.06,0,0,1-1.61-.5,1.7,1.7,0,0,1-.67-.6,1.52,1.52,0,0,1-.23-.84,1.71,1.71,0,0,1,.18-.77,1.73,1.73,0,0,1,.52-.59,2.48,2.48,0,0,1,.67-.3,3.69,3.69,0,0,1,2.19.1,1.72,1.72,0,0,1,.83.56,2.36,2.36,0,0,1,.36.95l-1,.14a1.1,1.1,0,0,0-.41-.73,1.42,1.42,0,0,0-.95-.28,1.62,1.62,0,0,0-1,.25.68.68,0,0,0-.32.56.55.55,0,0,0,.13.36,1,1,0,0,0,.4.28l.94.27a11.61,11.61,0,0,1,1.56.5,1.5,1.5,0,0,1,.69.54,1.53,1.53,0,0,1,.25.91,1.76,1.76,0,0,1-.31,1,2.06,2.06,0,0,1-.88.72,3.36,3.36,0,0,1-1.31.25,3,3,0,0,1-1.86-.5A2.43,2.43,0,0,1,355.38,64.06Zm6.42,4.25V59.7h.95v.79a2.41,2.41,0,0,1,.77-.7,2.25,2.25,0,0,1,1-.23A2.5,2.5,0,0,1,366,60a2.41,2.41,0,0,1,.91,1.16,4.39,4.39,0,0,1,.31,1.64,4.13,4.13,0,0,1-.35,1.72,2.47,2.47,0,0,1-1,1.17,2.61,2.61,0,0,1-1.38.41,2.11,2.11,0,0,1-1-.22,2.6,2.6,0,0,1-.69-.56v3Zm.95-5.47a2.76,2.76,0,0,0,.48,1.78,1.52,1.52,0,0,0,2.38,0,2.86,2.86,0,0,0,.5-1.85,2.64,2.64,0,0,0-.49-1.76,1.44,1.44,0,0,0-1.17-.59,1.49,1.49,0,0,0-1.18.62A2.79,2.79,0,0,0,362.75,62.84Zm6.05,3.08v-8.6h1V60.4a2.36,2.36,0,0,1,1.86-.84,2.43,2.43,0,0,1,1.21.28,1.6,1.6,0,0,1,.73.75,3.32,3.32,0,0,1,.22,1.39v3.94h-1.05V62a1.64,1.64,0,0,0-.34-1.16,1.28,1.28,0,0,0-1-.36,1.79,1.79,0,0,0-.89.25,1.4,1.4,0,0,0-.59.66,2.89,2.89,0,0,0-.18,1.14v3.41Zm11.25-2,1.09.12a2.65,2.65,0,0,1-.95,1.49,2.91,2.91,0,0,1-1.78.53,2.88,2.88,0,0,1-2.18-.85,3.3,3.3,0,0,1-.79-2.36,3.4,3.4,0,0,1,.81-2.42,2.73,2.73,0,0,1,2.09-.87,2.67,2.67,0,0,1,2,.84,3.35,3.35,0,0,1,.79,2.39v.28h-4.64a2.44,2.44,0,0,0,.58,1.58,1.71,1.71,0,0,0,1.3.53,1.67,1.67,0,0,0,1-.29A2.09,2.09,0,0,0,380.05,63.92Zm-3.46-1.71h3.47a2,2,0,0,0-.39-1.18,1.63,1.63,0,0,0-1.31-.61,1.74,1.74,0,0,0-1.24.48A1.94,1.94,0,0,0,376.59,62.21Zm6.19,3.71V59.7h1v.94a2.44,2.44,0,0,1,.66-.86,1.16,1.16,0,0,1,.69-.22,2.11,2.11,0,0,1,1.08.33l-.36,1a1.46,1.46,0,0,0-.77-.23,1,1,0,0,0-.64.21,1.07,1.07,0,0,0-.37.58,3.71,3.71,0,0,0-.19,1.22v3.27Zm4-7.38V57.32h1.06v1.22Zm0,7.38V59.7h1.06v6.22Zm7.06-2.28,1,.14a2.74,2.74,0,0,1-.87,1.67,2.58,2.58,0,0,1-1.72.61,2.73,2.73,0,0,1-2.07-.83,3.47,3.47,0,0,1-.76-2.41,4.34,4.34,0,0,1,.33-1.75,2.36,2.36,0,0,1,1-1.14,3.09,3.09,0,0,1,1.5-.37,2.53,2.53,0,0,1,1.64.51,2.35,2.35,0,0,1,.85,1.46l-1,.15a1.72,1.72,0,0,0-.52-.94,1.37,1.37,0,0,0-.91-.32,1.63,1.63,0,0,0-1.29.57,2.65,2.65,0,0,0-.5,1.8,2.81,2.81,0,0,0,.48,1.83,1.58,1.58,0,0,0,1.25.56,1.45,1.45,0,0,0,1-.37A1.9,1.9,0,0,0,393.86,63.64Z"/><path class="cls-15" d="M411,61.92h12"/><path class="cls-12" d="M435.88,65.92V65a2.31,2.31,0,0,1-2,1.07,2.56,2.56,0,0,1-1-.21,1.71,1.71,0,0,1-.7-.53,2,2,0,0,1-.33-.79,5.68,5.68,0,0,1-.06-1V59.7h1.06v3.45a6.71,6.71,0,0,0,.06,1.11,1.15,1.15,0,0,0,.41.66,1.41,1.41,0,0,0,.81.23,1.77,1.77,0,0,0,.87-.23,1.36,1.36,0,0,0,.6-.68,3.15,3.15,0,0,0,.19-1.21V59.7h1v6.22Zm2.92,0V59.7h.93v.87a2.27,2.27,0,0,1,2-1,2.49,2.49,0,0,1,1,.2,1.7,1.7,0,0,1,.72.53,2.33,2.33,0,0,1,.33.77,8.22,8.22,0,0,1,0,1v3.83h-1V62.14a2.62,2.62,0,0,0-.13-1,1,1,0,0,0-.44-.5,1.26,1.26,0,0,0-.73-.21,1.72,1.72,0,0,0-1.17.44,2.1,2.1,0,0,0-.49,1.61v3.41Zm11,0v-.78a2,2,0,0,1-1.74.92,2.47,2.47,0,0,1-1.37-.41,2.77,2.77,0,0,1-1-1.16,3.88,3.88,0,0,1-.34-1.68,4.39,4.39,0,0,1,.31-1.69,2.38,2.38,0,0,1,.94-1.16,2.48,2.48,0,0,1,1.39-.4,2.17,2.17,0,0,1,1,.23,2.25,2.25,0,0,1,.72.61V57.32h1v8.6Zm-3.33-3.11a2.73,2.73,0,0,0,.5,1.79,1.51,1.51,0,0,0,2.36,0,2.61,2.61,0,0,0,.48-1.72,2.83,2.83,0,0,0-.5-1.87,1.48,1.48,0,0,0-1.2-.6A1.43,1.43,0,0,0,447,61,2.81,2.81,0,0,0,446.5,62.81Zm10.55,1.11,1.09.12a2.65,2.65,0,0,1-.95,1.49,2.91,2.91,0,0,1-1.78.53,2.88,2.88,0,0,1-2.18-.85,3.3,3.3,0,0,1-.79-2.36,3.4,3.4,0,0,1,.81-2.42,2.73,2.73,0,0,1,2.09-.87,2.67,2.67,0,0,1,2,.84,3.35,3.35,0,0,1,.79,2.39v.28h-4.64a2.44,2.44,0,0,0,.58,1.58,1.71,1.71,0,0,0,1.3.53,1.67,1.67,0,0,0,1-.29A2.09,2.09,0,0,0,457.05,63.92Zm-3.46-1.71h3.47a2,2,0,0,0-.39-1.18,1.63,1.63,0,0,0-1.31-.61,1.74,1.74,0,0,0-1.24.48A1.94,1.94,0,0,0,453.59,62.21Zm6.19,3.71V59.7h1v.94a2.44,2.44,0,0,1,.66-.86,1.16,1.16,0,0,1,.69-.22,2.11,2.11,0,0,1,1.08.33l-.36,1a1.46,1.46,0,0,0-.77-.23,1,1,0,0,0-.64.21,1.07,1.07,0,0,0-.37.58,3.71,3.71,0,0,0-.19,1.22v3.27Zm3.81.51,1,.16a1.05,1.05,0,0,0,.36.69,1.79,1.79,0,0,0,1.07.29,1.87,1.87,0,0,0,1.12-.29,1.49,1.49,0,0,0,.55-.82,6,6,0,0,0,.08-1.36,2.14,2.14,0,0,1-1.72.82,2.35,2.35,0,0,1-2-.93,3.56,3.56,0,0,1-.7-2.21,4.17,4.17,0,0,1,.31-1.64,2.43,2.43,0,0,1,2.38-1.58,2.24,2.24,0,0,1,1.83.89V59.7h1v5.37a5.11,5.11,0,0,1-.3,2.07,2.16,2.16,0,0,1-.94,1,3.18,3.18,0,0,1-1.58.36,3,3,0,0,1-1.79-.5A1.73,1.73,0,0,1,463.59,66.43Zm.88-3.73a2.72,2.72,0,0,0,.48,1.78,1.61,1.61,0,0,0,2.44,0,2.61,2.61,0,0,0,.5-1.75,2.54,2.54,0,0,0-.51-1.72A1.56,1.56,0,0,0,465,61,2.56,2.56,0,0,0,464.47,62.7Zm6.31,3.22V59.7h1v.94a2.44,2.44,0,0,1,.66-.86,1.16,1.16,0,0,1,.69-.22,2.11,2.11,0,0,1,1.08.33l-.36,1a1.46,1.46,0,0,0-.77-.23,1,1,0,0,0-.64.21,1.07,1.07,0,0,0-.37.58,3.71,3.71,0,0,0-.19,1.22v3.27Zm3.63-3.11a3.22,3.22,0,0,1,.95-2.57,2.91,2.91,0,0,1,1.95-.68,2.8,2.8,0,0,1,2.1.84,3.12,3.12,0,0,1,.82,2.31,4.22,4.22,0,0,1-.35,1.89,2.59,2.59,0,0,1-1.07,1.08,3.1,3.1,0,0,1-1.5.38,2.84,2.84,0,0,1-2.11-.83A3.39,3.39,0,0,1,474.41,62.81Zm1.07,0a2.68,2.68,0,0,0,.52,1.78,1.7,1.7,0,0,0,1.31.59,1.67,1.67,0,0,0,1.31-.59,2.68,2.68,0,0,0,.52-1.81,2.56,2.56,0,0,0-.53-1.75,1.64,1.64,0,0,0-1.3-.6A1.67,1.67,0,0,0,476,61,2.63,2.63,0,0,0,475.48,62.81Zm10.4,3.11V65a2.31,2.31,0,0,1-2,1.07,2.56,2.56,0,0,1-1-.21,1.71,1.71,0,0,1-.7-.53,2,2,0,0,1-.33-.79,5.68,5.68,0,0,1-.06-1V59.7h1.06v3.45a6.71,6.71,0,0,0,.06,1.11,1.15,1.15,0,0,0,.41.66,1.41,1.41,0,0,0,.81.23,1.77,1.77,0,0,0,.87-.23,1.36,1.36,0,0,0,.6-.68,3.15,3.15,0,0,0,.19-1.21V59.7h1v6.22Zm2.92,0V59.7h.93v.87a2.27,2.27,0,0,1,2-1,2.49,2.49,0,0,1,1,.2,1.7,1.7,0,0,1,.72.53,2.33,2.33,0,0,1,.33.77,8.22,8.22,0,0,1,0,1v3.83h-1V62.14a2.62,2.62,0,0,0-.13-1,1,1,0,0,0-.44-.5,1.26,1.26,0,0,0-.73-.21,1.72,1.72,0,0,0-1.17.44,2.1,2.1,0,0,0-.49,1.61v3.41Zm11,0v-.78a2,2,0,0,1-1.74.92,2.47,2.47,0,0,1-1.37-.41,2.77,2.77,0,0,1-1-1.16,3.88,3.88,0,0,1-.34-1.68,4.39,4.39,0,0,1,.31-1.69,2.38,2.38,0,0,1,.94-1.16,2.48,2.48,0,0,1,1.39-.4,2.17,2.17,0,0,1,1,.23,2.25,2.25,0,0,1,.72.61V57.32h1v8.6Zm-3.33-3.11a2.73,2.73,0,0,0,.5,1.79,1.51,1.51,0,0,0,2.36,0,2.61,2.61,0,0,0,.48-1.72,2.83,2.83,0,0,0-.5-1.87,1.48,1.48,0,0,0-1.2-.6A1.43,1.43,0,0,0,497,61,2.81,2.81,0,0,0,496.5,62.81Z"/><path class="cls-16" d="M29.49,23.24h1.89V31.5a9.77,9.77,0,0,1-.49,3.44A4.16,4.16,0,0,1,29.13,37a6.24,6.24,0,0,1-3.35.8,6.89,6.89,0,0,1-3.29-.69,4,4,0,0,1-1.82-2,9.74,9.74,0,0,1-.54-3.6V23.24H22v8.25a8.17,8.17,0,0,0,.34,2.76,2.63,2.63,0,0,0,1.19,1.36,4.26,4.26,0,0,0,2.08.47,4,4,0,0,0,3-.94c.59-.63.89-1.85.89-3.65Zm4,9.72,1.78-.16a3.85,3.85,0,0,0,.58,1.75,3.31,3.31,0,0,0,1.43,1.12,5.46,5.46,0,0,0,2.22.43,5.35,5.35,0,0,0,1.91-.32,2.59,2.59,0,0,0,1.23-.89A2,2,0,0,0,43,33.66a1.83,1.83,0,0,0-.39-1.17,2.89,2.89,0,0,0-1.28-.85,23.72,23.72,0,0,0-2.57-.7A12.7,12.7,0,0,1,36,30.05a3.87,3.87,0,0,1-1.53-1.33,3.29,3.29,0,0,1-.5-1.78,3.69,3.69,0,0,1,.61-2,3.75,3.75,0,0,1,1.8-1.42A6.58,6.58,0,0,1,39,23a7.28,7.28,0,0,1,2.82.51A4,4,0,0,1,43.71,25a4.27,4.27,0,0,1,.7,2.25l-1.81.14a2.93,2.93,0,0,0-1-2.05,3.8,3.8,0,0,0-2.5-.7,4,4,0,0,0-2.51.64,1.88,1.88,0,0,0-.78,1.5,1.61,1.61,0,0,0,.56,1.28,7.6,7.6,0,0,0,2.86,1,18.39,18.39,0,0,1,3.17.9,4.35,4.35,0,0,1,1.84,1.47,3.52,3.52,0,0,1,.6,2,3.91,3.91,0,0,1-.66,2.16,4.35,4.35,0,0,1-1.89,1.58,6.56,6.56,0,0,1-2.75.56,8.35,8.35,0,0,1-3.25-.56,4.65,4.65,0,0,1-2.06-1.72A4.76,4.76,0,0,1,33.46,33Zm12.06,4.59L51,23.24h2l5.85,14.31H56.77L55.1,33.21h-6l-1.58,4.34Zm4.14-5.88H54.5l-1.48-4q-.69-1.82-1-3a17.19,17.19,0,0,1-.78,2.73Zm23,4.6a6.58,6.58,0,0,1-1.89,1.17,5.37,5.37,0,0,1-1.93.34A3.82,3.82,0,0,1,66.19,37a2.81,2.81,0,0,1-.92-2.14,2.87,2.87,0,0,1,.34-1.4,3.05,3.05,0,0,1,.92-1,4.48,4.48,0,0,1,1.27-.59c.34-.08.86-.17,1.56-.26a16.46,16.46,0,0,0,3.13-.6c0-.24,0-.39,0-.47A1.92,1.92,0,0,0,72,29a2.9,2.9,0,0,0-2-.6,3.14,3.14,0,0,0-1.84.44,2.7,2.7,0,0,0-.86,1.55l-1.72-.24a4.23,4.23,0,0,1,.77-1.78,3.24,3.24,0,0,1,1.54-1,6.83,6.83,0,0,1,2.36-.38,6.18,6.18,0,0,1,2.16.31,2.85,2.85,0,0,1,1.22.8,2.79,2.79,0,0,1,.55,1.19,9.67,9.67,0,0,1,.09,1.62v2.35a26.48,26.48,0,0,0,.11,3.11,3.67,3.67,0,0,0,.45,1.23H73A3.93,3.93,0,0,1,72.64,36.27Zm-.15-3.92a12.45,12.45,0,0,1-2.88.65,6.88,6.88,0,0,0-1.53.36,1.59,1.59,0,0,0-.69.56,1.57,1.57,0,0,0-.25.85,1.48,1.48,0,0,0,.54,1.17,2.29,2.29,0,0,0,1.56.47A3.62,3.62,0,0,0,71,36a2.77,2.77,0,0,0,1.18-1.22A4.44,4.44,0,0,0,72.49,33Zm4.37,5.2V27.17h1.6v1.49a3.7,3.7,0,0,1,3.29-1.72,4.36,4.36,0,0,1,1.72.34,2.64,2.64,0,0,1,1.19.88,3.48,3.48,0,0,1,.55,1.3,11,11,0,0,1,.09,1.71v6.38H83.53V31.24a4.67,4.67,0,0,0-.2-1.61,1.63,1.63,0,0,0-.73-.85,2.4,2.4,0,0,0-1.22-.31,2.83,2.83,0,0,0-1.94.72,3.5,3.5,0,0,0-.81,2.69v5.67Zm17.74,0V36.24a3.23,3.23,0,0,1-2.91,1.54,4.06,4.06,0,0,1-2.28-.68,4.66,4.66,0,0,1-1.61-1.91,6.71,6.71,0,0,1-.56-2.81,7.51,7.51,0,0,1,.51-2.83,4.13,4.13,0,0,1,1.55-1.94,4.18,4.18,0,0,1,2.31-.67,3.39,3.39,0,0,1,1.67.41,3.63,3.63,0,0,1,1.21,1V23.24h1.73V37.55ZM89,32.38a4.5,4.5,0,0,0,.85,3,2.55,2.55,0,0,0,2,1,2.48,2.48,0,0,0,2-.94,4.29,4.29,0,0,0,.81-2.87,4.88,4.88,0,0,0-.83-3.13,2.51,2.51,0,0,0-2-1,2.46,2.46,0,0,0-2,1A4.69,4.69,0,0,0,89,32.38Zm25.46-9.14h1.89V31.5a9.77,9.77,0,0,1-.49,3.44A4.16,4.16,0,0,1,114.13,37a6.24,6.24,0,0,1-3.35.8,6.89,6.89,0,0,1-3.29-.69,4,4,0,0,1-1.81-2,9.51,9.51,0,0,1-.55-3.6V23.24H107v8.25a8.17,8.17,0,0,0,.34,2.76,2.63,2.63,0,0,0,1.19,1.36,4.26,4.26,0,0,0,2.08.47,4,4,0,0,0,3-.94c.59-.63.89-1.85.89-3.65Zm4,9.72,1.78-.16a3.85,3.85,0,0,0,.58,1.75,3.31,3.31,0,0,0,1.43,1.12,5.46,5.46,0,0,0,2.22.43,5.35,5.35,0,0,0,1.91-.32,2.59,2.59,0,0,0,1.23-.89,2,2,0,0,0,.41-1.23,1.83,1.83,0,0,0-.39-1.17,2.89,2.89,0,0,0-1.28-.85,23.72,23.72,0,0,0-2.57-.7,12.7,12.7,0,0,1-2.75-.89,3.87,3.87,0,0,1-1.53-1.33,3.29,3.29,0,0,1-.5-1.78,3.69,3.69,0,0,1,.61-2,3.75,3.75,0,0,1,1.8-1.42A6.58,6.58,0,0,1,124,23a7.28,7.28,0,0,1,2.82.51A4,4,0,0,1,128.71,25a4.27,4.27,0,0,1,.7,2.25l-1.81.14a2.9,2.9,0,0,0-1-2.05,3.8,3.8,0,0,0-2.5-.7,4,4,0,0,0-2.51.64,1.88,1.88,0,0,0-.78,1.5,1.61,1.61,0,0,0,.56,1.28,7.6,7.6,0,0,0,2.86,1,18.39,18.39,0,0,1,3.17.9,4.35,4.35,0,0,1,1.84,1.47,3.52,3.52,0,0,1,.6,2,3.91,3.91,0,0,1-.66,2.16,4.35,4.35,0,0,1-1.89,1.58,6.56,6.56,0,0,1-2.75.56,8.38,8.38,0,0,1-3.25-.56,4.7,4.7,0,0,1-2.06-1.72A4.76,4.76,0,0,1,118.46,33Zm13,0,1.78-.16a3.85,3.85,0,0,0,.58,1.75,3.31,3.31,0,0,0,1.43,1.12,5.46,5.46,0,0,0,2.22.43,5.35,5.35,0,0,0,1.91-.32,2.59,2.59,0,0,0,1.23-.89,2,2,0,0,0,.41-1.23,1.83,1.83,0,0,0-.39-1.17,2.89,2.89,0,0,0-1.28-.85,23.72,23.72,0,0,0-2.57-.7,12.7,12.7,0,0,1-2.75-.89,3.87,3.87,0,0,1-1.53-1.33,3.29,3.29,0,0,1-.5-1.78,3.69,3.69,0,0,1,.61-2,3.75,3.75,0,0,1,1.8-1.42A6.58,6.58,0,0,1,137,23a7.28,7.28,0,0,1,2.82.51A4,4,0,0,1,141.71,25a4.27,4.27,0,0,1,.7,2.25l-1.81.14a2.9,2.9,0,0,0-1-2.05,3.8,3.8,0,0,0-2.5-.7,4,4,0,0,0-2.51.64,1.88,1.88,0,0,0-.78,1.5,1.61,1.61,0,0,0,.56,1.28,7.6,7.6,0,0,0,2.86,1,18.39,18.39,0,0,1,3.17.9,4.35,4.35,0,0,1,1.84,1.47,3.52,3.52,0,0,1,.6,2,3.91,3.91,0,0,1-.66,2.16,4.35,4.35,0,0,1-1.89,1.58,6.56,6.56,0,0,1-2.75.56,8.38,8.38,0,0,1-3.25-.56,4.7,4.7,0,0,1-2.06-1.72A4.76,4.76,0,0,1,131.46,33Zm13.67,4.59V23.24h6.34a8.41,8.41,0,0,1,2.91.39A3.09,3.09,0,0,1,156,25a4,4,0,0,1,.6,2.15,3.61,3.61,0,0,1-1,2.57A5,5,0,0,1,152.53,31a5,5,0,0,1,1.15.72,9.71,9.71,0,0,1,1.57,1.91l2.49,3.89h-2.38l-1.9-3c-.56-.86-1-1.51-1.36-2a4.1,4.1,0,0,0-1-1,3.14,3.14,0,0,0-.86-.39,6.52,6.52,0,0,0-1.05-.06H147v6.36Zm1.89-8h4.08a5.93,5.93,0,0,0,2-.27,2.06,2.06,0,0,0,1.11-.86,2.27,2.27,0,0,0,.39-1.28,2.15,2.15,0,0,0-.73-1.67,3.43,3.43,0,0,0-2.33-.65H147Zm17.17,3.7V31.49h5.39v1.76Zm20.45,3a6.58,6.58,0,0,1-1.89,1.17,5.37,5.37,0,0,1-1.93.34,3.82,3.82,0,0,1-2.63-.82,2.81,2.81,0,0,1-.92-2.14,2.87,2.87,0,0,1,.34-1.4,3.05,3.05,0,0,1,.92-1,4.48,4.48,0,0,1,1.27-.59c.34-.08.86-.17,1.56-.26a16.46,16.46,0,0,0,3.13-.6c0-.24,0-.39,0-.47A1.92,1.92,0,0,0,184,29a2.9,2.9,0,0,0-2-.6,3.14,3.14,0,0,0-1.84.44,2.7,2.7,0,0,0-.86,1.55l-1.72-.24a4.23,4.23,0,0,1,.77-1.78,3.24,3.24,0,0,1,1.54-1,6.83,6.83,0,0,1,2.36-.38,6.18,6.18,0,0,1,2.16.31,2.85,2.85,0,0,1,1.22.8,2.79,2.79,0,0,1,.55,1.19,9.67,9.67,0,0,1,.09,1.62v2.35a26.48,26.48,0,0,0,.11,3.11,3.67,3.67,0,0,0,.45,1.23H185A3.93,3.93,0,0,1,184.64,36.27Zm-.15-3.92a12.45,12.45,0,0,1-2.88.65,6.88,6.88,0,0,0-1.53.36,1.59,1.59,0,0,0-.69.56,1.57,1.57,0,0,0-.25.85,1.48,1.48,0,0,0,.54,1.17,2.29,2.29,0,0,0,1.56.47A3.62,3.62,0,0,0,183,36a2.77,2.77,0,0,0,1.18-1.22,4.44,4.44,0,0,0,.28-1.76ZM192.71,36l.25,1.56a6.14,6.14,0,0,1-1.33.16,3.07,3.07,0,0,1-1.49-.3,1.79,1.79,0,0,1-.73-.79,6.16,6.16,0,0,1-.22-2.08v-6h-1.28V27.17h1.28V24.61l1.75-1.06v3.62h1.77v1.38h-1.77v6.06a3.17,3.17,0,0,0,.09,1,.89.89,0,0,0,.3.34,1.18,1.18,0,0,0,.61.13A5.56,5.56,0,0,0,192.71,36Zm2.15,1.58V27.17h1.58v1.46a3.72,3.72,0,0,1,1.3-1.22,3.62,3.62,0,0,1,1.84-.47,3.4,3.4,0,0,1,1.89.48,2.62,2.62,0,0,1,1.05,1.33,3.72,3.72,0,0,1,3.2-1.81,3.18,3.18,0,0,1,2.38.86,3.66,3.66,0,0,1,.83,2.62v7.13h-1.75V31A4.57,4.57,0,0,0,207,29.5a1.46,1.46,0,0,0-.62-.75,2,2,0,0,0-1-.28,2.49,2.49,0,0,0-1.83.74,3.17,3.17,0,0,0-.72,2.31v6H201V30.82a2.87,2.87,0,0,0-.43-1.75,1.6,1.6,0,0,0-1.41-.6,2.56,2.56,0,0,0-1.37.39,2.21,2.21,0,0,0-.91,1.14,6.44,6.44,0,0,0-.28,2.17v5.38Zm16.36-5.19a5.33,5.33,0,0,1,1.6-4.26,4.82,4.82,0,0,1,3.26-1.16,4.61,4.61,0,0,1,3.49,1.41,5.35,5.35,0,0,1,1.36,3.87,6.91,6.91,0,0,1-.6,3.16,4.23,4.23,0,0,1-1.75,1.78,5.07,5.07,0,0,1-2.5.62,4.68,4.68,0,0,1-3.53-1.39A5.61,5.61,0,0,1,211.22,32.36Zm1.8,0a4.46,4.46,0,0,0,.86,3,2.84,2.84,0,0,0,2.2,1,2.76,2.76,0,0,0,2.17-1,4.51,4.51,0,0,0,.88-3.05,4.24,4.24,0,0,0-.88-2.91,2.78,2.78,0,0,0-2.17-1,2.82,2.82,0,0,0-2.2,1A4.44,4.44,0,0,0,213,32.36Zm9.14,2.1,1.75-.29a2.39,2.39,0,0,0,.81,1.61,2.87,2.87,0,0,0,1.88.55,2.76,2.76,0,0,0,1.78-.48,1.51,1.51,0,0,0,.59-1.16,1.07,1.07,0,0,0-.51-.94,8,8,0,0,0-1.8-.59,19.43,19.43,0,0,1-2.69-.84,2.6,2.6,0,0,1-1.51-2.4,2.72,2.72,0,0,1,.31-1.28,3,3,0,0,1,.87-1,3.38,3.38,0,0,1,1.11-.5,5.1,5.1,0,0,1,1.53-.22,5.91,5.91,0,0,1,2.15.36,2.86,2.86,0,0,1,1.35.95,3.6,3.6,0,0,1,.61,1.6l-1.71.23a1.9,1.9,0,0,0-.69-1.23,2.42,2.42,0,0,0-1.58-.46,2.83,2.83,0,0,0-1.73.41,1.13,1.13,0,0,0-.52.92,1,1,0,0,0,.22.63,1.56,1.56,0,0,0,.67.47c.18.06.69.2,1.55.43a20.65,20.65,0,0,1,2.61.83,2.64,2.64,0,0,1,1.15.92,2.55,2.55,0,0,1,.42,1.5,3,3,0,0,1-.51,1.66,3.27,3.27,0,0,1-1.49,1.2,5.4,5.4,0,0,1-2.18.42,4.87,4.87,0,0,1-3.08-.84A3.92,3.92,0,0,1,222.16,34.46Zm10.7,7.06V27.17h1.61v1.35a4,4,0,0,1,1.27-1.17,3.46,3.46,0,0,1,1.73-.41,4.09,4.09,0,0,1,2.35.69,4.27,4.27,0,0,1,1.53,1.94,7.32,7.32,0,0,1,0,5.59,4.32,4.32,0,0,1-4,2.62,3.29,3.29,0,0,1-1.58-.37,3.64,3.64,0,0,1-1.14-.94v5.05Zm1.6-9.1a4.51,4.51,0,0,0,.81,3,2.51,2.51,0,0,0,2,.95,2.54,2.54,0,0,0,2-1,4.7,4.7,0,0,0,.84-3.08,4.44,4.44,0,0,0-.83-3,2.4,2.4,0,0,0-1.93-1,2.54,2.54,0,0,0-2,1.06A4.65,4.65,0,0,0,234.46,32.42Zm9.4,5.13V23.24h1.77v5.12a3.93,3.93,0,0,1,3.11-1.42,4.13,4.13,0,0,1,2,.45,2.67,2.67,0,0,1,1.22,1.27,5.58,5.58,0,0,1,.38,2.31v6.58h-1.75V31a2.66,2.66,0,0,0-.58-1.9,2.1,2.1,0,0,0-1.61-.61,3,3,0,0,0-1.49.4,2.35,2.35,0,0,0-1,1.11,5.17,5.17,0,0,0-.28,1.91v5.67ZM262,34.21l1.81.23a4.42,4.42,0,0,1-1.59,2.47,5.44,5.44,0,0,1-6.58-.52,5.51,5.51,0,0,1-1.33-3.93,5.73,5.73,0,0,1,1.35-4.07,4.53,4.53,0,0,1,3.5-1.45,4.41,4.41,0,0,1,3.39,1.42,5.62,5.62,0,0,1,1.33,4c0,.1,0,.26,0,.47H256.1a3.87,3.87,0,0,0,1,2.6,2.86,2.86,0,0,0,2.17.91,2.71,2.71,0,0,0,1.64-.5A3.38,3.38,0,0,0,262,34.21Zm-5.78-2.85H262a3.49,3.49,0,0,0-.66-1.95,2.7,2.7,0,0,0-2.19-1,2.76,2.76,0,0,0-2,.82A3.16,3.16,0,0,0,256.19,31.36Zm9.66,6.19V27.17h1.57v1.58a4.27,4.27,0,0,1,1.13-1.45,1.91,1.91,0,0,1,1.12-.36,3.53,3.53,0,0,1,1.82.56l-.61,1.64a2.47,2.47,0,0,0-1.28-.39,1.67,1.67,0,0,0-1.05.36,2,2,0,0,0-.66,1,7.29,7.29,0,0,0-.28,2v5.44Zm7-12.3v-2h1.76v2Zm0,12.3V27.17h1.76V37.55Zm10.76-3.8,1.72.22a4.48,4.48,0,0,1-1.45,2.81,4.19,4.19,0,0,1-2.86,1,4.43,4.43,0,0,1-3.42-1.39,5.58,5.58,0,0,1-1.3-4,7.21,7.21,0,0,1,.55-2.94,3.88,3.88,0,0,1,1.7-1.89,5,5,0,0,1,2.49-.64,4.26,4.26,0,0,1,2.75.86,4,4,0,0,1,1.39,2.42l-1.72.27a2.81,2.81,0,0,0-.86-1.57,2.27,2.27,0,0,0-1.5-.53,2.71,2.71,0,0,0-2.16,1,4.5,4.5,0,0,0-.83,3,4.71,4.71,0,0,0,.8,3,2.6,2.6,0,0,0,2.09.94,2.49,2.49,0,0,0,1.72-.62A3.13,3.13,0,0,0,283.64,33.75Zm16,2.52a6.58,6.58,0,0,1-1.89,1.17,5.37,5.37,0,0,1-1.93.34,3.82,3.82,0,0,1-2.63-.82,2.81,2.81,0,0,1-.92-2.14,2.87,2.87,0,0,1,.34-1.4,3.05,3.05,0,0,1,.92-1,4.48,4.48,0,0,1,1.27-.59c.34-.08.86-.17,1.56-.26a16.46,16.46,0,0,0,3.13-.6c0-.24,0-.39,0-.47A1.92,1.92,0,0,0,299,29a2.9,2.9,0,0,0-2-.6,3.14,3.14,0,0,0-1.84.44,2.7,2.7,0,0,0-.86,1.55l-1.72-.24a4.23,4.23,0,0,1,.77-1.78,3.24,3.24,0,0,1,1.54-1,6.83,6.83,0,0,1,2.36-.38,6.18,6.18,0,0,1,2.16.31,2.85,2.85,0,0,1,1.22.8,2.67,2.67,0,0,1,.54,1.19,8.43,8.43,0,0,1,.1,1.62v2.35a26.48,26.48,0,0,0,.11,3.11,3.67,3.67,0,0,0,.45,1.23H300A3.93,3.93,0,0,1,299.64,36.27Zm-.15-3.92a12.45,12.45,0,0,1-2.88.65,6.88,6.88,0,0,0-1.53.36,1.59,1.59,0,0,0-.69.56,1.57,1.57,0,0,0-.25.85,1.5,1.5,0,0,0,.53,1.17,2.34,2.34,0,0,0,1.57.47A3.62,3.62,0,0,0,298,36a2.77,2.77,0,0,0,1.18-1.22,4.44,4.44,0,0,0,.28-1.76Zm4.37,5.2V27.17h1.6v1.49a3.7,3.7,0,0,1,3.29-1.72,4.36,4.36,0,0,1,1.72.34,2.64,2.64,0,0,1,1.19.88,3.48,3.48,0,0,1,.55,1.3,11,11,0,0,1,.09,1.71v6.38h-1.77V31.24a4.67,4.67,0,0,0-.2-1.61,1.63,1.63,0,0,0-.73-.85,2.4,2.4,0,0,0-1.22-.31,2.83,2.83,0,0,0-1.94.72,3.5,3.5,0,0,0-.81,2.69v5.67Zm17.74,0V36.24a3.23,3.23,0,0,1-2.91,1.54,4.06,4.06,0,0,1-2.28-.68,4.66,4.66,0,0,1-1.61-1.91,6.56,6.56,0,0,1-.56-2.81,7.51,7.51,0,0,1,.51-2.83,4.13,4.13,0,0,1,1.55-1.94,4.18,4.18,0,0,1,2.31-.67,3.39,3.39,0,0,1,1.67.41,3.74,3.74,0,0,1,1.21,1V23.24h1.73V37.55ZM316,32.38a4.5,4.5,0,0,0,.85,3,2.55,2.55,0,0,0,2,1,2.48,2.48,0,0,0,2-.94,4.29,4.29,0,0,0,.81-2.87,4.88,4.88,0,0,0-.83-3.13,2.51,2.51,0,0,0-2-1,2.46,2.46,0,0,0-2,1A4.69,4.69,0,0,0,316,32.38Zm22.63,5.17V36a3.76,3.76,0,0,1-3.28,1.76,4.26,4.26,0,0,1-1.72-.34,3,3,0,0,1-1.19-.89,3.31,3.31,0,0,1-.53-1.31,9,9,0,0,1-.11-1.64V27.17h1.75v5.75a10.38,10.38,0,0,0,.11,1.86,2,2,0,0,0,.7,1.1,2.25,2.25,0,0,0,1.33.39,2.91,2.91,0,0,0,1.49-.41,2.25,2.25,0,0,0,1-1.09,5.39,5.39,0,0,0,.3-2V27.17h1.75V37.55Zm4.2,0V27.17h1.6v1.49a3.7,3.7,0,0,1,3.29-1.72,4.36,4.36,0,0,1,1.72.34,2.64,2.64,0,0,1,1.19.88,3.48,3.48,0,0,1,.55,1.3,11,11,0,0,1,.09,1.71v6.38h-1.77V31.24a4.67,4.67,0,0,0-.2-1.61,1.63,1.63,0,0,0-.73-.85,2.4,2.4,0,0,0-1.22-.31,2.83,2.83,0,0,0-1.94.72,3.5,3.5,0,0,0-.81,2.69v5.67Zm17.74,0V36.24a3.23,3.23,0,0,1-2.91,1.54,4.06,4.06,0,0,1-2.28-.68,4.66,4.66,0,0,1-1.61-1.91,6.56,6.56,0,0,1-.56-2.81,7.51,7.51,0,0,1,.51-2.83,4.13,4.13,0,0,1,1.55-1.94,4.18,4.18,0,0,1,2.31-.67,3.39,3.39,0,0,1,1.67.41,3.74,3.74,0,0,1,1.21,1V23.24h1.73V37.55ZM355,32.38a4.5,4.5,0,0,0,.85,3,2.55,2.55,0,0,0,2,1,2.48,2.48,0,0,0,2-.94,4.29,4.29,0,0,0,.81-2.87,4.88,4.88,0,0,0-.83-3.13,2.51,2.51,0,0,0-2-1,2.46,2.46,0,0,0-2,1A4.69,4.69,0,0,0,355,32.38ZM372,34.21l1.81.23a4.42,4.42,0,0,1-1.59,2.47,5.44,5.44,0,0,1-6.58-.52,5.51,5.51,0,0,1-1.33-3.93,5.73,5.73,0,0,1,1.35-4.07,4.53,4.53,0,0,1,3.5-1.45,4.41,4.41,0,0,1,3.39,1.42,5.62,5.62,0,0,1,1.33,4c0,.1,0,.26,0,.47H366.1a3.87,3.87,0,0,0,1,2.6,2.86,2.86,0,0,0,2.17.91,2.71,2.71,0,0,0,1.64-.5A3.38,3.38,0,0,0,372,34.21Zm-5.78-2.85H372a3.49,3.49,0,0,0-.66-1.95,2.7,2.7,0,0,0-2.19-1,2.76,2.76,0,0,0-2,.82A3.16,3.16,0,0,0,366.19,31.36Zm9.66,6.19V27.17h1.57v1.58a4.27,4.27,0,0,1,1.13-1.45,1.91,1.91,0,0,1,1.12-.36,3.53,3.53,0,0,1,1.82.56l-.61,1.64a2.47,2.47,0,0,0-1.28-.39,1.67,1.67,0,0,0-1.05.36,2,2,0,0,0-.66,1,7.29,7.29,0,0,0-.28,2v5.44Zm6.7.86,1.7.25a1.66,1.66,0,0,0,.6,1.16,3,3,0,0,0,1.79.48,3.14,3.14,0,0,0,1.88-.48,2.36,2.36,0,0,0,.9-1.36,10.47,10.47,0,0,0,.13-2.27,3.62,3.62,0,0,1-2.88,1.36A3.92,3.92,0,0,1,383.36,36a6,6,0,0,1-1.17-3.7,7,7,0,0,1,.53-2.73,4.46,4.46,0,0,1,1.56-1.94,4.24,4.24,0,0,1,2.41-.69,3.76,3.76,0,0,1,3,1.48V27.17h1.61v9a8.41,8.41,0,0,1-.5,3.43,3.52,3.52,0,0,1-1.56,1.59,5.27,5.27,0,0,1-2.63.59,5,5,0,0,1-3-.83A2.79,2.79,0,0,1,382.55,38.41ZM384,32.17a4.47,4.47,0,0,0,.82,3,2.64,2.64,0,0,0,4,0,4.35,4.35,0,0,0,.83-2.92,4.3,4.3,0,0,0-.84-2.88,2.63,2.63,0,0,0-2-1,2.54,2.54,0,0,0-2,1A4.18,4.18,0,0,0,384,32.17Zm9.85,5.38V27.17h1.57v1.58a4.27,4.27,0,0,1,1.13-1.45,1.91,1.91,0,0,1,1.12-.36,3.53,3.53,0,0,1,1.82.56l-.61,1.64a2.47,2.47,0,0,0-1.28-.39,1.67,1.67,0,0,0-1.05.36,2,2,0,0,0-.66,1,7.29,7.29,0,0,0-.28,2v5.44Zm6.37-5.19a5.33,5.33,0,0,1,1.6-4.26,4.82,4.82,0,0,1,3.26-1.16,4.61,4.61,0,0,1,3.49,1.41,5.35,5.35,0,0,1,1.35,3.87,6.93,6.93,0,0,1-.59,3.16,4.23,4.23,0,0,1-1.75,1.78,5.07,5.07,0,0,1-2.5.62,4.68,4.68,0,0,1-3.53-1.39A5.61,5.61,0,0,1,400.22,32.36Zm1.8,0a4.46,4.46,0,0,0,.86,3,2.84,2.84,0,0,0,2.2,1,2.76,2.76,0,0,0,2.17-1,4.51,4.51,0,0,0,.88-3.05,4.24,4.24,0,0,0-.88-2.91,2.78,2.78,0,0,0-2.17-1,2.82,2.82,0,0,0-2.2,1A4.44,4.44,0,0,0,402,32.36Zm16.64,5.19V36a3.76,3.76,0,0,1-3.28,1.76,4.26,4.26,0,0,1-1.72-.34,3,3,0,0,1-1.19-.89,3.31,3.31,0,0,1-.53-1.31,9,9,0,0,1-.11-1.64V27.17h1.75v5.75a10.38,10.38,0,0,0,.11,1.86,2,2,0,0,0,.7,1.1,2.25,2.25,0,0,0,1.33.39,2.91,2.91,0,0,0,1.49-.41,2.25,2.25,0,0,0,1-1.09,5.39,5.39,0,0,0,.3-2V27.17h1.75V37.55Zm4.2,0V27.17h1.6v1.49a3.7,3.7,0,0,1,3.29-1.72,4.36,4.36,0,0,1,1.72.34,2.64,2.64,0,0,1,1.19.88,3.48,3.48,0,0,1,.55,1.3,11,11,0,0,1,.09,1.71v6.38h-1.77V31.24a4.67,4.67,0,0,0-.2-1.61,1.63,1.63,0,0,0-.73-.85,2.4,2.4,0,0,0-1.22-.31,2.83,2.83,0,0,0-1.94.72,3.5,3.5,0,0,0-.81,2.69v5.67Zm17.74,0V36.24a3.23,3.23,0,0,1-2.91,1.54,4.06,4.06,0,0,1-2.28-.68,4.66,4.66,0,0,1-1.61-1.91,6.56,6.56,0,0,1-.56-2.81,7.51,7.51,0,0,1,.51-2.83,4.13,4.13,0,0,1,1.55-1.94,4.18,4.18,0,0,1,2.31-.67,3.39,3.39,0,0,1,1.67.41,3.74,3.74,0,0,1,1.21,1V23.24h1.73V37.55ZM435,32.38a4.5,4.5,0,0,0,.85,3,2.55,2.55,0,0,0,2,1,2.48,2.48,0,0,0,2-.94,4.29,4.29,0,0,0,.81-2.87,4.88,4.88,0,0,0-.83-3.13,2.51,2.51,0,0,0-2-1,2.46,2.46,0,0,0-2,1A4.69,4.69,0,0,0,435,32.38Z"/><text class="cls-17" transform="translate(137.15 57.32)">USA</text><text class="cls-17" transform="translate(243.86 57.32)">USA</text><text class="cls-17" transform="translate(348.41 57.32)">USSR</text><text class="cls-17" transform="translate(452.44 57.32)">USSR</text></svg>